<svg width="1979" height="175" viewBox="0 0 1979 175" fill="none" xmlns="http://www.w3.org/2000/svg">
<mask id="mask0_105_165" style="mask-type:alpha" maskUnits="userSpaceOnUse" x="0" y="0" width="1979" height="175">
<rect width="1979" height="175" fill="#D9D9D9"/>
</mask>
<g mask="url(#mask0_105_165)">
<ellipse cx="1943.29" cy="158.52" rx="51.7053" ry="53.6086" transform="rotate(-180 1943.29 158.52)" fill="#0062CD"/>
<ellipse cx="1102.67" cy="123.934" rx="51.7053" ry="53.6086" transform="rotate(-180 1102.67 123.934)" fill="#0062CD"/>
<ellipse cx="1879.64" cy="111.441" rx="51.7053" ry="53.6086" transform="rotate(-180 1879.64 111.441)" fill="#0062CD"/>
<ellipse cx="1024.83" cy="78.9718" rx="51.7053" ry="53.6086" transform="rotate(-180 1024.83 78.9718)" fill="#0062CD"/>
<ellipse cx="1818.76" cy="73.2074" rx="51.7053" ry="53.6086" transform="rotate(-180 1818.76 73.2074)" fill="#0062CD"/>
<ellipse cx="959.225" cy="53.6086" rx="51.7053" ry="53.6086" transform="rotate(-180 959.225 53.6086)" fill="#0062CD"/>
<ellipse cx="1734.25" cy="73.2074" rx="51.7053" ry="53.6086" transform="rotate(-180 1734.25 73.2074)" fill="#0062CD"/>
<ellipse cx="894.733" cy="75.5132" rx="51.7053" ry="53.6086" transform="rotate(-180 894.733 75.5132)" fill="#0062CD"/>
<ellipse rx="51.7979" ry="53.5192" transform="matrix(-0.974061 -0.226284 0.211231 -0.977436 1415.08 97.3696)" fill="#0062CD"/>
<ellipse cx="1652.98" cy="84.4407" rx="51.7053" ry="53.6086" transform="rotate(-180 1652.98 84.4407)" fill="#0062CD"/>
<ellipse rx="51.7059" ry="53.6081" transform="matrix(-0.999853 -0.01712 0.0159263 -0.999873 832.464 93.9592)" fill="#0062CD"/>
<ellipse rx="51.7979" ry="53.5192" transform="matrix(-0.974061 -0.226284 0.211231 -0.977436 1329.46 123.886)" fill="#0062CD"/>
<ellipse cx="1477.39" cy="114.711" rx="51.7053" ry="53.6086" transform="rotate(-180 1477.39 114.711)" fill="#0062CD"/>
<ellipse rx="51.7979" ry="53.5192" transform="matrix(-0.974061 -0.226284 0.211231 -0.977436 1178.23 113.51)" fill="#0062CD"/>
<ellipse rx="51.7979" ry="53.5192" transform="matrix(-0.974061 -0.226284 0.211231 -0.977436 605.581 146.943)" fill="#0062CD"/>
<ellipse rx="51.7979" ry="53.5192" transform="matrix(-0.974061 -0.226284 0.211231 -0.977436 686.753 120.427)" fill="#0062CD"/>
<ellipse rx="51.7979" ry="53.5192" transform="matrix(-0.974061 -0.226284 0.211231 -0.977436 650.459 69.0167)" fill="#0062CD"/>
<ellipse rx="51.7979" ry="53.5192" transform="matrix(-0.974061 -0.226284 0.211231 -0.977436 770.149 111.204)" fill="#0062CD"/>
<ellipse rx="51.7979" ry="53.5192" transform="matrix(-0.974061 -0.226284 0.211231 -0.977436 588.902 97.3696)" fill="#0062CD"/>
<ellipse rx="51.7979" ry="53.5192" transform="matrix(-0.974061 -0.226284 0.211231 -0.977436 504.394 82.3823)" fill="#0062CD"/>
<ellipse rx="51.7979" ry="53.5192" transform="matrix(-0.974061 -0.226284 0.211231 -0.977436 412.103 90.4524)" fill="#0062CD"/>
<ellipse rx="51.7979" ry="53.5192" transform="matrix(-0.974061 -0.226284 0.211231 -0.977436 320.924 93.911)" fill="#0062CD"/>
<ellipse rx="51.7979" ry="53.5192" transform="matrix(-0.974061 -0.226284 0.211231 -0.977436 235.304 130.803)" fill="#0062CD"/>
<ellipse rx="51.7979" ry="53.5192" transform="matrix(-0.974061 -0.226284 0.211231 -0.977436 169.7 65.0892)" fill="#0062CD"/>
<ellipse rx="51.7979" ry="53.5192" transform="matrix(-0.974061 -0.226284 0.211231 -0.977436 100.759 113.51)" fill="#0062CD"/>
<ellipse cx="1565.8" cy="96.0493" rx="50.1538" ry="52" transform="rotate(-180 1565.8 96.0493)" fill="#0062CD"/>
<ellipse rx="42.3295" ry="43.7361" transform="matrix(-0.974061 -0.226284 0.211231 -0.977436 1260.69 105.616)" fill="#0062CD"/>
<path d="M88.2172 67.5293C88.2172 92.7879 70.7485 113.966 47.2333 119.643C43.1848 120.62 38.9572 121.138 34.6086 121.138C5.00139 121.138 -19 97.1365 -19 67.5293C-19 37.922 5.00139 13.9207 34.6086 13.9207C64.2158 13.9207 88.2172 37.922 88.2172 67.5293Z" fill="white"/>
<path d="M959.789 102.115C959.789 121.833 949.145 139.064 933.289 148.375C925.335 153.046 916.071 155.724 906.181 155.724C893.094 155.724 881.102 151.035 871.794 143.245C860.045 133.411 852.572 118.636 852.572 102.115C852.572 72.5083 876.574 48.5069 906.181 48.5069C935.788 48.5069 959.789 72.5083 959.789 102.115Z" fill="white"/>
<path d="M154.217 114.609C154.217 140.303 136.141 161.775 112.012 167.002C108.337 167.798 104.522 168.217 100.609 168.217C72.699 168.217 49.7709 146.889 47.2333 119.643C47.0789 117.986 47 116.306 47 114.609C47 85.0015 71.0014 61.0001 100.609 61.0001C130.216 61.0001 154.217 85.0015 154.217 114.609Z" fill="white"/>
<path d="M1040.49 147.078C1040.49 169.53 1026.69 188.759 1007.1 196.741C1000.86 199.285 994.036 200.686 986.882 200.686C957.708 200.686 933.978 177.383 933.289 148.375C933.278 147.944 933.273 147.511 933.273 147.078C933.273 117.47 957.275 93.4689 986.882 93.4689C1016.49 93.4689 1040.49 117.47 1040.49 147.078Z" fill="white"/>
<path d="M217.339 152.842C217.339 164.351 213.712 175.012 207.54 183.747C197.832 197.482 181.829 206.451 163.73 206.451C139.025 206.451 118.222 189.738 112.012 167.002C110.78 162.491 110.122 157.743 110.122 152.842C110.122 123.235 134.123 99.2333 163.73 99.2333C193.338 99.2333 217.339 123.235 217.339 152.842Z" fill="white"/>
<path d="M1108.51 172.441C1108.51 182.495 1105.74 191.902 1100.93 199.943C1091.56 215.581 1074.45 226.049 1054.9 226.049C1034.04 226.049 1015.96 214.135 1007.1 196.741C1003.39 189.447 1001.29 181.188 1001.29 172.441C1001.29 142.834 1025.29 118.832 1054.9 118.832C1084.51 118.832 1108.51 142.834 1108.51 172.441Z" fill="white"/>
<path d="M304.957 152.842C304.957 162.594 302.353 171.738 297.803 179.616C288.538 195.657 271.204 206.451 251.349 206.451C233.25 206.451 217.247 197.482 207.54 183.747C201.367 175.012 197.74 164.351 197.74 152.842C197.74 123.235 221.742 99.2333 251.349 99.2333C280.956 99.2333 304.957 123.235 304.957 152.842Z" fill="white"/>
<path d="M1175.38 150.536C1175.38 162.077 1171.73 172.766 1165.53 181.513C1155.81 195.208 1139.83 204.145 1121.77 204.145C1114.38 204.145 1107.33 202.649 1100.93 199.943C1081.67 191.811 1068.16 172.752 1068.16 150.536C1068.16 120.929 1092.16 96.9275 1121.77 96.9275C1151.38 96.9275 1175.38 120.929 1175.38 150.536Z" fill="white"/>
<path d="M634.583 140.401C634.517 140.696 634.448 140.991 634.377 141.284C627.523 169.661 599.146 187.398 570.55 180.991C557.424 178.05 546.509 170.527 539.114 160.483C530.233 148.421 526.428 132.723 529.96 116.959C536.433 88.0677 565.102 69.8947 593.992 76.3681C622.883 82.8414 641.056 111.51 634.583 140.401Z" fill="white"/>
<path d="M389.217 141.609C389.217 148.89 387.766 155.832 385.136 162.162C377.073 181.569 357.935 195.217 335.609 195.217C320.856 195.217 307.496 189.258 297.803 179.616C288.042 169.907 282 156.464 282 141.609C282 112.001 306.001 88.0001 335.609 88.0001C365.216 88.0001 389.217 112.001 389.217 141.609Z" fill="white"/>
<path d="M1239.93 132.975C1239.74 144.594 1235.86 155.288 1229.44 163.964C1219.49 177.394 1203.43 185.988 1185.44 185.691C1178.38 185.575 1171.66 184.097 1165.53 181.513C1145.95 173.266 1132.36 153.745 1132.73 131.205C1133.22 101.602 1157.61 78 1187.21 78.4889C1216.82 78.9777 1240.42 103.372 1239.93 132.975Z" fill="white"/>
<path d="M723.354 113.885C720.64 125.997 714.025 136.226 705.127 143.544C692.803 153.682 676.1 158.235 659.322 154.475C649.623 152.302 641.133 147.628 634.377 141.284C621.007 128.73 614.431 109.635 618.731 90.4426C625.204 61.5517 653.873 43.3787 682.764 49.852C711.655 56.3254 729.828 84.9937 723.354 113.885Z" fill="white"/>
<path d="M571.271 111.338C571.271 133.318 558.043 152.208 539.114 160.483C532.545 163.354 525.29 164.947 517.662 164.947C500.749 164.947 485.665 157.115 475.84 144.879C468.466 135.696 464.054 124.032 464.054 111.338C464.054 81.7312 488.055 57.7298 517.662 57.7298C547.27 57.7298 571.271 81.7312 571.271 111.338Z" fill="white"/>
<path d="M880.145 124.261C878.57 131.29 875.681 137.685 871.794 143.245C859.708 160.536 837.974 169.749 816.112 164.851C801.066 161.48 788.926 152.088 781.662 139.78C774.977 128.456 772.42 114.663 775.522 100.818C781.995 71.9276 810.664 53.7546 839.554 60.2279C868.445 66.7013 886.618 95.3696 880.145 124.261Z" fill="white"/>
<path d="M1473.87 90.8271C1467.4 119.718 1438.73 137.891 1409.84 131.418C1380.95 124.944 1362.78 96.276 1369.25 67.3851C1375.72 38.4942 1404.39 20.3212 1433.28 26.7946C1462.17 33.2679 1480.35 61.9363 1473.87 90.8271Z" fill="white"/>
<path d="M1389.71 117.343C1383.24 146.234 1354.57 164.407 1325.68 157.934C1324.23 157.609 1322.81 157.228 1321.41 156.794C1311.93 153.841 1303.77 148.429 1297.5 141.433C1286.34 128.969 1281.15 111.476 1285.09 93.9012C1291.57 65.0103 1320.23 46.8373 1349.12 53.3106C1378.02 59.784 1396.19 88.4524 1389.71 117.343Z" fill="white"/>
<path d="M1427.34 168.754C1426.45 172.729 1425.14 176.502 1423.47 180.035C1412.98 202.179 1388.23 214.927 1363.31 209.344C1338.27 203.733 1321.28 181.447 1321.41 156.794C1321.43 153.005 1321.86 149.16 1322.72 145.312C1329.19 116.421 1357.86 98.2477 1386.75 104.721C1415.64 111.194 1433.82 139.863 1427.34 168.754Z" fill="white"/>
<path d="M1303.25 126.566C1302.05 131.919 1300.09 136.905 1297.5 141.433C1286.14 161.346 1262.75 172.431 1239.22 167.157C1235.8 166.391 1232.53 165.315 1229.44 163.964C1206.37 153.898 1192.92 128.598 1198.63 103.124C1205.1 74.2333 1233.77 56.0603 1262.66 62.5336C1291.55 69.007 1309.72 97.6754 1303.25 126.566Z" fill="white"/>
<path d="M1491.17 140.401C1488.95 150.284 1484.14 158.912 1477.61 165.729C1465.05 178.841 1446.14 185.25 1427.14 180.991C1425.89 180.713 1424.67 180.393 1423.47 180.035C1396.73 172.052 1380.35 144.607 1386.54 116.959C1393.02 88.0677 1421.69 69.8947 1450.58 76.3681C1479.47 82.8414 1497.64 111.51 1491.17 140.401Z" fill="white"/>
<path d="M1578.79 155.388C1578.16 158.162 1577.34 160.836 1576.33 163.4C1566.81 187.541 1540.87 201.831 1514.75 195.979C1497.66 192.148 1484.32 180.548 1477.61 165.729C1472.99 155.503 1471.52 143.743 1474.16 131.946C1480.64 103.055 1509.3 84.8821 1538.2 91.3555C1567.09 97.8288 1585.26 126.497 1578.79 155.388Z" fill="white"/>
<path d="M1674.47 147.318C1673.54 151.48 1672.15 155.42 1670.36 159.096C1659.74 180.934 1635.17 193.449 1610.44 187.908C1595.63 184.589 1583.63 175.431 1576.33 163.4C1569.39 151.972 1566.7 137.95 1569.85 123.876C1576.32 94.985 1604.99 76.812 1633.88 83.2853C1662.77 89.7587 1680.95 118.427 1674.47 147.318Z" fill="white"/>
<path d="M1769.01 143.859C1762.54 172.75 1733.87 190.923 1704.98 184.45C1689.82 181.053 1677.61 171.543 1670.36 159.096C1663.8 147.825 1661.31 134.146 1664.39 120.417C1670.86 91.5264 1699.53 73.3534 1728.42 79.8267C1754.56 85.6838 1771.93 109.711 1770.2 135.633C1770.02 138.36 1769.63 141.109 1769.01 143.859Z" fill="white"/>
<path d="M1857.78 106.967C1853.48 126.163 1839.38 140.627 1821.93 146.274C1813.11 149.127 1803.44 149.73 1793.75 147.558C1784.71 145.532 1776.72 141.333 1770.2 135.633C1755.9 123.119 1748.71 103.375 1753.16 83.5253C1759.63 54.6344 1788.3 36.4615 1817.19 42.9348C1846.08 49.4081 1864.25 78.0765 1857.78 106.967Z" fill="white"/>
<path d="M1925.8 172.681C1919.33 201.572 1890.66 219.745 1861.77 213.272C1832.88 206.798 1814.7 178.13 1821.18 149.239C1821.4 148.238 1821.65 147.249 1821.93 146.274C1829.64 119.118 1857.32 102.4 1885.21 108.649C1910.89 114.402 1928.1 137.686 1927.07 163.076C1926.94 166.255 1926.52 169.467 1925.8 172.681Z" fill="white"/>
<path d="M1997.28 124.261C1990.81 153.151 1962.14 171.324 1933.25 164.851C1931.13 164.376 1929.06 163.782 1927.07 163.076C1901.82 154.169 1886.66 127.589 1892.66 100.818C1899.13 71.9276 1927.8 53.7546 1956.69 60.2279C1985.58 66.7013 2003.75 95.3696 1997.28 124.261Z" fill="white"/>
<path d="M478 130C478 135.171 477.245 140.165 475.84 144.879C469.44 166.348 449.548 182 426 182C409.423 182 394.658 174.243 385.136 162.162C378.161 153.312 374 142.142 374 130C374 101.281 397.281 78.0001 426 78.0001C454.719 78.0001 478 101.281 478 130Z" fill="white"/>
<path d="M785.094 130.012C784.32 133.468 783.157 136.736 781.662 139.78C772.942 157.538 752.92 167.698 732.766 163.183C720.819 160.506 711.114 153.184 705.127 143.544C699.284 134.135 696.982 122.517 699.595 110.855C704.886 87.2452 728.313 72.3941 751.923 77.6842C775.533 82.9742 790.384 106.402 785.094 130.012Z" fill="white"/>
<path d="M47.2333 119.643C43.1848 120.62 38.9572 121.138 34.6086 121.138C5.00139 121.138 -19 97.1365 -19 67.5293V321H1997.28V124.261C1990.81 153.151 1962.14 171.324 1933.25 164.851C1931.13 164.376 1929.06 163.782 1927.07 163.076C1926.94 166.255 1926.52 169.467 1925.8 172.681C1919.33 201.572 1890.66 219.745 1861.77 213.272C1832.88 206.798 1814.7 178.13 1821.18 149.239C1821.4 148.238 1821.65 147.249 1821.93 146.274C1813.11 149.127 1803.44 149.73 1793.75 147.558C1784.71 145.532 1776.72 141.333 1770.2 135.633C1770.02 138.36 1769.63 141.109 1769.01 143.859C1762.54 172.75 1733.87 190.923 1704.98 184.45C1689.82 181.053 1677.61 171.543 1670.36 159.096C1659.74 180.934 1635.17 193.449 1610.44 187.908C1595.63 184.589 1583.63 175.431 1576.33 163.4C1566.81 187.541 1540.87 201.831 1514.75 195.979C1497.66 192.148 1484.32 180.548 1477.61 165.729C1465.05 178.841 1446.14 185.25 1427.14 180.991C1425.89 180.713 1424.67 180.393 1423.47 180.035C1412.98 202.179 1388.23 214.927 1363.31 209.344C1338.27 203.733 1321.28 181.447 1321.41 156.794C1311.93 153.841 1303.77 148.429 1297.5 141.433C1286.14 161.346 1262.75 172.431 1239.22 167.157C1235.8 166.391 1232.53 165.315 1229.44 163.964C1219.49 177.394 1203.43 185.988 1185.44 185.691C1178.38 185.575 1171.66 184.097 1165.53 181.513C1155.81 195.208 1139.83 204.145 1121.77 204.145C1114.38 204.145 1107.33 202.649 1100.93 199.943C1091.56 215.581 1074.45 226.049 1054.9 226.049C1034.04 226.049 1015.96 214.135 1007.1 196.741C1000.86 199.285 994.036 200.686 986.882 200.686C957.708 200.686 933.978 177.383 933.289 148.375C925.335 153.046 916.071 155.724 906.181 155.724C893.094 155.724 881.102 151.035 871.794 143.245C859.708 160.536 837.974 169.749 816.112 164.851C801.066 161.48 788.926 152.088 781.662 139.78C772.942 157.538 752.92 167.698 732.766 163.183C720.819 160.506 711.114 153.184 705.127 143.544C692.803 153.682 676.1 158.235 659.322 154.475C649.623 152.302 641.133 147.628 634.377 141.284C627.523 169.661 599.146 187.398 570.55 180.991C557.424 178.05 546.509 170.527 539.114 160.483C532.545 163.354 525.29 164.947 517.662 164.947C500.749 164.947 485.665 157.115 475.84 144.879C469.44 166.348 449.548 182 426 182C409.423 182 394.658 174.243 385.136 162.162C377.073 181.569 357.935 195.217 335.609 195.217C320.856 195.217 307.496 189.258 297.803 179.616C288.538 195.657 271.204 206.451 251.349 206.451C233.25 206.451 217.247 197.482 207.54 183.747C197.832 197.482 181.829 206.451 163.73 206.451C139.025 206.451 118.222 189.738 112.012 167.002C108.337 167.798 104.522 168.217 100.609 168.217C72.699 168.217 49.7709 146.889 47.2333 119.643Z" fill="white"/>
</g>
</svg>
