<svg width="12" height="12" viewBox="0 0 12 12" fill="none" xmlns="http://www.w3.org/2000/svg">
<g opacity="0.4">
<path d="M9.42333 1.10119C9.29015 0.966107 9.07446 0.966107 8.94128 1.10119L6.00037 4.08413L3.05969 1.10119C2.92651 0.966107 2.71083 0.966107 2.57765 1.10119L1.10037 2.59958C0.967193 2.73466 0.967193 2.95343 1.10037 3.08851L3.97072 5.99988L1.10037 8.91124C0.967193 9.04633 0.967193 9.26509 1.10037 9.40018L2.57765 10.8986C2.71083 11.0336 2.92651 11.0336 3.05969 10.8986L6.00037 7.91562L8.94128 10.8986C9.07446 11.0336 9.29015 11.0336 9.42333 10.8986L10.9006 9.39995C11.0338 9.26486 11.0338 9.0461 10.9006 8.91101L8.03049 5.99988L10.9006 3.08874C11.0338 2.95366 11.0338 2.73489 10.9006 2.59981L9.42333 1.10119Z" fill="#50597C"/>
</g>
</svg>
