<svg width="18" height="17" viewBox="0 0 18 17" fill="none" xmlns="http://www.w3.org/2000/svg">
<path d="M8.79674 0.0625773C8.85659 0.0218745 8.92744 6.23608e-05 9 0C9.07256 6.23608e-05 9.14341 0.0218745 9.20326 0.0625773C9.26311 0.10328 9.30916 0.160976 9.33539 0.228097L11.5551 5.90535L17.6582 6.21436C17.7308 6.21801 17.8006 6.2434 17.8585 6.2872C17.9163 6.33099 17.9594 6.39113 17.982 6.4597C18.0047 6.52826 18.0059 6.60204 17.9855 6.67131C17.9651 6.74057 17.924 6.80208 17.8677 6.84773L13.1153 10.7023L14.6763 16.5512C14.6949 16.6208 14.6919 16.6944 14.6676 16.7623C14.6433 16.8302 14.5989 16.8892 14.5402 16.9316C14.4815 16.974 14.4112 16.9978 14.3386 16.9998C14.266 17.0019 14.1945 16.9822 14.1334 16.9432L9 13.6745L3.86655 16.9432C3.80549 16.9822 3.73396 17.0019 3.66138 16.9998C3.58879 16.9978 3.51853 16.974 3.45982 16.9316C3.40112 16.8892 3.35671 16.8302 3.33242 16.7623C3.30814 16.6944 3.30511 16.6208 3.32375 16.5512L4.88467 10.7023L0.1323 6.84773C0.0759593 6.80208 0.0348787 6.74057 0.0144664 6.67131C-0.00594591 6.60204 -0.00473187 6.52826 0.0179511 6.4597C0.0406341 6.39113 0.0837211 6.33099 0.141536 6.2872C0.199351 6.2434 0.269182 6.21801 0.34183 6.21436L6.44488 5.90535L8.66461 0.228097C8.69084 0.160976 8.73689 0.10328 8.79674 0.0625773Z" fill="#FFD600"/>
</svg>
