<svg width="18" height="18" viewBox="0 0 18 18" fill="none" xmlns="http://www.w3.org/2000/svg">
<path d="M8.98901 2.2397C8.79023 2.24262 8.60073 2.32433 8.46216 2.46688C8.32359 2.60944 8.24728 2.80117 8.25 2.99996V10.1894L7.28027 9.21968C7.2103 9.14775 7.12659 9.09059 7.03412 9.05159C6.94166 9.01259 6.8423 8.99254 6.74194 8.99263C6.59281 8.99282 6.44711 9.03746 6.32346 9.12085C6.19982 9.20424 6.10384 9.3226 6.04779 9.4608C5.99174 9.599 5.97816 9.75078 6.00878 9.89674C6.03941 10.0427 6.11285 10.1762 6.21973 10.2802L8.46973 12.5302C8.61038 12.6708 8.80112 12.7498 9 12.7498C9.19888 12.7498 9.38962 12.6708 9.53027 12.5302L11.7803 10.2802C11.8523 10.2111 11.9097 10.1283 11.9493 10.0367C11.9889 9.94515 12.0098 9.84658 12.0108 9.7468C12.0118 9.64702 11.9929 9.54804 11.9552 9.45565C11.9175 9.36327 11.8617 9.27934 11.7912 9.20878C11.7206 9.13822 11.6367 9.08245 11.5443 9.04473C11.4519 9.00702 11.3529 8.98811 11.2532 8.98913C11.1534 8.99014 11.0548 9.01106 10.9632 9.05065C10.8716 9.09024 10.7888 9.1477 10.7197 9.21968L9.75 10.1894V2.99996C9.75137 2.89968 9.73262 2.80014 9.69485 2.70724C9.65709 2.61433 9.60107 2.52994 9.53012 2.45906C9.45917 2.38818 9.37473 2.33225 9.28179 2.29457C9.18885 2.25689 9.08929 2.23824 8.98901 2.2397ZM4.5 6.37496C3.26624 6.37496 2.25 7.3912 2.25 8.62496V13.5C2.25 14.7337 3.26624 15.75 4.5 15.75H13.5C14.7338 15.75 15.75 14.7337 15.75 13.5V8.62496C15.75 7.3912 14.7338 6.37496 13.5 6.37496H12.375C12.2756 6.37355 12.1769 6.39191 12.0847 6.42897C11.9925 6.46603 11.9086 6.52105 11.8378 6.59084C11.767 6.66062 11.7108 6.74378 11.6724 6.83547C11.6341 6.92716 11.6143 7.02556 11.6143 7.12496C11.6143 7.22435 11.6341 7.32276 11.6724 7.41445C11.7108 7.50614 11.767 7.58929 11.8378 7.65908C11.9086 7.72886 11.9925 7.78388 12.0847 7.82094C12.1769 7.858 12.2756 7.87636 12.375 7.87496H13.5C13.923 7.87496 14.25 8.20197 14.25 8.62496V13.5C14.25 13.9229 13.923 14.25 13.5 14.25H4.5C4.07701 14.25 3.75 13.9229 3.75 13.5V8.62496C3.75 8.20197 4.07701 7.87496 4.5 7.87496H5.625C5.72438 7.87636 5.82306 7.858 5.91528 7.82094C6.00751 7.78388 6.09145 7.72886 6.16223 7.65908C6.233 7.58929 6.28921 7.50614 6.32757 7.41445C6.36593 7.32276 6.38568 7.22435 6.38568 7.12496C6.38568 7.02556 6.36593 6.92716 6.32757 6.83547C6.28921 6.74378 6.233 6.66062 6.16223 6.59084C6.09145 6.52105 6.00751 6.46603 5.91528 6.42897C5.82306 6.39191 5.72438 6.37355 5.625 6.37496H4.5Z" fill="white"/>
</svg>
