<svg width="158" height="1188" viewBox="0 0 158 1188" fill="none" xmlns="http://www.w3.org/2000/svg">
<path d="M90.2138 22C87.8138 26 15.2138 120 15.2138 188.5C15.2138 257 72.734 275.278 74.7138 312.5C77.1274 357.878 19.218 367.234 15.2138 412.5C9.97449 471.728 102.547 465 129.214 561C154.214 651 73.2541 695.695 84.714 761C96.6346 828.93 142.481 800.037 154.214 868C167.569 945.357 68.2717 951.54 65.7142 1030C63.9462 1084.24 115.714 1179 115.714 1179" stroke="#C4D4E4" stroke-width="5" stroke-linecap="round" stroke-dasharray="10 20"/>
<circle cx="107" cy="1166" r="22" fill="#0070EB"/>
<path fill-rule="evenodd" clip-rule="evenodd" d="M104.06 1167.83L113.655 1156L118 1159.63L104.718 1176L96 1168.26L99.7063 1163.96L104.06 1167.83Z" fill="white"/>
<circle cx="79" cy="22" r="22" fill="#0070EB"/>
<path d="M73.4134 14.512C74.2641 14.512 75.0194 14.6733 75.6794 14.996C76.3541 15.3187 76.8967 15.7367 77.3074 16.25C77.7181 16.7633 78.0554 17.372 78.3194 18.076C78.5981 18.78 78.7887 19.484 78.8914 20.188C78.9941 20.892 79.0454 21.6327 79.0454 22.41C79.0454 24.8593 78.5467 26.7807 77.5494 28.174C76.5521 29.5673 75.1807 30.264 73.4354 30.264C71.6461 30.264 70.2454 29.5747 69.2334 28.196C68.2361 26.8027 67.7374 24.874 67.7374 22.41C67.7374 21.4273 67.8327 20.5033 68.0234 19.638C68.2141 18.758 68.5147 17.922 68.9254 17.13C69.3361 16.3233 69.9227 15.6853 70.6854 15.216C71.4627 14.7467 72.3721 14.512 73.4134 14.512ZM73.3914 17.086C72.9807 17.086 72.6214 17.174 72.3134 17.35C72.0054 17.526 71.7561 17.79 71.5654 18.142C71.3894 18.4793 71.2427 18.8093 71.1254 19.132C71.0227 19.44 70.9494 19.8507 70.9054 20.364C70.8614 20.8627 70.8321 21.244 70.8174 21.508C70.8174 21.772 70.8174 22.124 70.8174 22.564C70.8174 26.0107 71.6827 27.734 73.4134 27.734C75.1147 27.734 75.9654 25.9593 75.9654 22.41C75.9654 20.5767 75.7601 19.2347 75.3494 18.384C74.9387 17.5187 74.2861 17.086 73.3914 17.086ZM88.212 14.6V30H84.89V19.99H81.15V17.68H81.546C83.878 17.68 85.242 16.6533 85.638 14.6H88.212Z" fill="white"/>
<circle cx="22" cy="441" r="22" fill="#0070EB"/>
<path d="M16.4134 433.512C17.2641 433.512 18.0194 433.673 18.6794 433.996C19.3541 434.319 19.8967 434.737 20.3074 435.25C20.7181 435.763 21.0554 436.372 21.3194 437.076C21.5981 437.78 21.7887 438.484 21.8914 439.188C21.9941 439.892 22.0454 440.633 22.0454 441.41C22.0454 443.859 21.5467 445.781 20.5494 447.174C19.5521 448.567 18.1807 449.264 16.4354 449.264C14.6461 449.264 13.2454 448.575 12.2334 447.196C11.2361 445.803 10.7374 443.874 10.7374 441.41C10.7374 440.427 10.8327 439.503 11.0234 438.638C11.2141 437.758 11.5147 436.922 11.9254 436.13C12.3361 435.323 12.9227 434.685 13.6854 434.216C14.4627 433.747 15.3721 433.512 16.4134 433.512ZM16.3914 436.086C15.9807 436.086 15.6214 436.174 15.3134 436.35C15.0054 436.526 14.7561 436.79 14.5654 437.142C14.3894 437.479 14.2427 437.809 14.1254 438.132C14.0227 438.44 13.9494 438.851 13.9054 439.364C13.8614 439.863 13.8321 440.244 13.8174 440.508C13.8174 440.772 13.8174 441.124 13.8174 441.564C13.8174 445.011 14.6827 446.734 16.4134 446.734C18.1147 446.734 18.9654 444.959 18.9654 441.41C18.9654 439.577 18.7601 438.235 18.3494 437.384C17.9387 436.519 17.2861 436.086 16.3914 436.086ZM34.116 446.294V449H22.83C22.8447 448.311 22.9327 447.68 23.094 447.108C23.27 446.521 23.468 446.03 23.688 445.634C23.9227 445.238 24.2747 444.82 24.744 444.38C25.2133 443.94 25.624 443.588 25.976 443.324C26.3427 443.06 26.8707 442.693 27.56 442.224C27.648 442.165 27.8827 442.011 28.264 441.762C28.6453 441.513 28.9093 441.337 29.056 441.234C29.2027 441.131 29.4227 440.955 29.716 440.706C30.0093 440.442 30.2147 440.215 30.332 440.024C30.464 439.833 30.5887 439.599 30.706 439.32C30.8233 439.027 30.882 438.726 30.882 438.418C30.882 437.743 30.6767 437.208 30.266 436.812C29.87 436.401 29.342 436.196 28.682 436.196C27.098 436.196 26.262 437.311 26.174 439.54H23.182V439.21C23.182 437.465 23.688 436.079 24.7 435.052C25.712 434.011 27.076 433.49 28.792 433.49C30.3467 433.49 31.608 433.93 32.576 434.81C33.544 435.675 34.028 436.805 34.028 438.198C34.028 439.327 33.7713 440.229 33.258 440.904C32.7447 441.579 31.938 442.29 30.838 443.038C30.6913 443.141 30.42 443.324 30.024 443.588C29.628 443.837 29.3127 444.043 29.078 444.204C28.858 444.365 28.5867 444.571 28.264 444.82C27.9413 445.069 27.6627 445.319 27.428 445.568C27.1933 445.803 26.9953 446.045 26.834 446.294H34.116Z" fill="white"/>
</svg>
