<svg width="44" height="44" viewBox="0 0 44 44" fill="none" xmlns="http://www.w3.org/2000/svg">
<circle cx="22" cy="22" r="22" fill="#0070EB"/>
<path d="M16.4134 14.512C17.2641 14.512 18.0194 14.6733 18.6794 14.996C19.3541 15.3187 19.8967 15.7367 20.3074 16.25C20.7181 16.7633 21.0554 17.372 21.3194 18.076C21.5981 18.78 21.7887 19.484 21.8914 20.188C21.9941 20.892 22.0454 21.6327 22.0454 22.41C22.0454 24.8593 21.5467 26.7807 20.5494 28.174C19.5521 29.5673 18.1807 30.264 16.4354 30.264C14.6461 30.264 13.2454 29.5747 12.2334 28.196C11.2361 26.8027 10.7374 24.874 10.7374 22.41C10.7374 21.4273 10.8327 20.5033 11.0234 19.638C11.2141 18.758 11.5147 17.922 11.9254 17.13C12.3361 16.3233 12.9227 15.6853 13.6854 15.216C14.4627 14.7467 15.3721 14.512 16.4134 14.512ZM16.3914 17.086C15.9807 17.086 15.6214 17.174 15.3134 17.35C15.0054 17.526 14.7561 17.79 14.5654 18.142C14.3894 18.4793 14.2427 18.8093 14.1254 19.132C14.0227 19.44 13.9494 19.8507 13.9054 20.364C13.8614 20.8627 13.8321 21.244 13.8174 21.508C13.8174 21.772 13.8174 22.124 13.8174 22.564C13.8174 26.0107 14.6827 27.734 16.4134 27.734C18.1147 27.734 18.9654 25.9593 18.9654 22.41C18.9654 20.5767 18.7601 19.2347 18.3494 18.384C17.9387 17.5187 17.2861 17.086 16.3914 17.086ZM31.212 14.6V30H27.89V19.99H24.15V17.68H24.546C26.878 17.68 28.242 16.6533 28.638 14.6H31.212Z" fill="white"/>
</svg>
