<svg width="50" height="392" viewBox="0 0 50 392" fill="none" xmlns="http://www.w3.org/2000/svg">
<path d="M32.3195 11.7437C31.6545 13.0162 11.8199 42.7846 11.1072 64.9199C10.3944 87.0552 25.144 93.4427 25.271 105.487C25.4257 120.171 10.2874 122.71 8.77642 137.304C6.79935 156.399 30.9135 154.999 36.8407 186.244C42.3976 215.536 20.9047 229.302 23.2017 250.501C25.591 272.552 37.7993 263.599 40.1397 285.658C42.8035 310.768 16.9485 311.935 15.4678 337.268C14.4443 354.779 26.904 385.834 26.904 385.834" stroke="#C4D4E4" stroke-width="3" stroke-linecap="round" stroke-dasharray="5 10"/>
<circle cx="30" cy="15" r="15" fill="#0070EB"/>
<path d="M26.1908 9.89453C26.7708 9.89453 27.2858 10.0045 27.7358 10.2245C28.1958 10.4445 28.5658 10.7295 28.8458 11.0795C29.1258 11.4295 29.3558 11.8445 29.5358 12.3245C29.7258 12.8045 29.8558 13.2845 29.9258 13.7645C29.9958 14.2445 30.0308 14.7495 30.0308 15.2795C30.0308 16.9495 29.6908 18.2595 29.0108 19.2095C28.3308 20.1595 27.3958 20.6345 26.2058 20.6345C24.9858 20.6345 24.0308 20.1645 23.3408 19.2245C22.6608 18.2745 22.3208 16.9595 22.3208 15.2795C22.3208 14.6095 22.3858 13.9795 22.5158 13.3895C22.6458 12.7895 22.8508 12.2195 23.1308 11.6795C23.4108 11.1295 23.8108 10.6945 24.3308 10.3745C24.8608 10.0545 25.4808 9.89453 26.1908 9.89453ZM26.1758 11.6495C25.8958 11.6495 25.6508 11.7095 25.4408 11.8295C25.2308 11.9495 25.0608 12.1295 24.9308 12.3695C24.8108 12.5995 24.7108 12.8245 24.6308 13.0445C24.5608 13.2545 24.5108 13.5345 24.4808 13.8845C24.4508 14.2245 24.4308 14.4845 24.4208 14.6645C24.4208 14.8445 24.4208 15.0845 24.4208 15.3845C24.4208 17.7345 25.0108 18.9095 26.1908 18.9095C27.3508 18.9095 27.9308 17.6995 27.9308 15.2795C27.9308 14.0295 27.7908 13.1145 27.5108 12.5345C27.2308 11.9445 26.7858 11.6495 26.1758 11.6495Z" fill="white"/>
<path d="M36.2808 9.95453V20.4545H34.0158V13.6295H31.4658V12.0545H31.7358C33.3258 12.0545 34.2558 11.3545 34.5258 9.95453H36.2808Z" fill="white"/>
<circle cx="30" cy="173" r="15" fill="#0070EB"/>
<path d="M26.1908 167.895C26.7708 167.895 27.2858 168.005 27.7358 168.225C28.1958 168.445 28.5658 168.73 28.8458 169.08C29.1258 169.43 29.3558 169.845 29.5358 170.325C29.7258 170.805 29.8558 171.285 29.9258 171.765C29.9958 172.245 30.0308 172.75 30.0308 173.28C30.0308 174.95 29.6908 176.26 29.0108 177.21C28.3308 178.16 27.3958 178.635 26.2058 178.635C24.9858 178.635 24.0308 178.165 23.3408 177.225C22.6608 176.275 22.3208 174.96 22.3208 173.28C22.3208 172.61 22.3858 171.98 22.5158 171.39C22.6458 170.79 22.8508 170.22 23.1308 169.68C23.4108 169.13 23.8108 168.695 24.3308 168.375C24.8608 168.055 25.4808 167.895 26.1908 167.895ZM26.1758 169.65C25.8958 169.65 25.6508 169.71 25.4408 169.83C25.2308 169.95 25.0608 170.13 24.9308 170.37C24.8108 170.6 24.7108 170.825 24.6308 171.045C24.5608 171.255 24.5108 171.535 24.4808 171.885C24.4508 172.225 24.4308 172.485 24.4208 172.665C24.4208 172.845 24.4208 173.085 24.4208 173.385C24.4208 175.735 25.0108 176.91 26.1908 176.91C27.3508 176.91 27.9308 175.7 27.9308 173.28C27.9308 172.03 27.7908 171.115 27.5108 170.535C27.2308 169.945 26.7858 169.65 26.1758 169.65Z" fill="white"/>
<path d="M38.2608 176.61V178.455H30.5658C30.5758 177.985 30.6358 177.555 30.7458 177.165C30.8658 176.765 31.0008 176.43 31.1508 176.16C31.3108 175.89 31.5508 175.605 31.8708 175.305C32.1908 175.005 32.4708 174.765 32.7108 174.585C32.9608 174.405 33.3208 174.155 33.7908 173.835C33.8508 173.795 34.0108 173.69 34.2708 173.52C34.5308 173.35 34.7108 173.23 34.8108 173.16C34.9108 173.09 35.0608 172.97 35.2608 172.8C35.4608 172.62 35.6008 172.465 35.6808 172.335C35.7708 172.205 35.8558 172.045 35.9358 171.855C36.0158 171.655 36.0558 171.45 36.0558 171.24C36.0558 170.78 35.9158 170.415 35.6358 170.145C35.3658 169.865 35.0058 169.725 34.5558 169.725C33.4758 169.725 32.9058 170.485 32.8458 172.005H30.8058V171.78C30.8058 170.59 31.1508 169.645 31.8408 168.945C32.5308 168.235 33.4608 167.88 34.6308 167.88C35.6908 167.88 36.5508 168.18 37.2108 168.78C37.8708 169.37 38.2008 170.14 38.2008 171.09C38.2008 171.86 38.0258 172.475 37.6758 172.935C37.3258 173.395 36.7758 173.88 36.0258 174.39C35.9258 174.46 35.7408 174.585 35.4708 174.765C35.2008 174.935 34.9858 175.075 34.8258 175.185C34.6758 175.295 34.4908 175.435 34.2708 175.605C34.0508 175.775 33.8608 175.945 33.7008 176.115C33.5408 176.275 33.4058 176.44 33.2958 176.61H38.2608Z" fill="white"/>
<circle cx="30" cy="377" r="15" fill="#0070EB"/>
<path fill-rule="evenodd" clip-rule="evenodd" d="M27.9957 378.244L34.5377 370.182L37.5 372.658L28.4443 383.818L22.5 378.539L25.027 375.608L27.9957 378.244Z" fill="white"/>
</svg>
