<svg width="44" height="44" viewBox="0 0 44 44" fill="none" xmlns="http://www.w3.org/2000/svg">
<circle cx="22" cy="22" r="22" fill="#0070EB"/>
<path d="M16.4134 14.512C17.2641 14.512 18.0194 14.6733 18.6794 14.996C19.3541 15.3187 19.8967 15.7367 20.3074 16.25C20.7181 16.7633 21.0554 17.372 21.3194 18.076C21.5981 18.78 21.7887 19.484 21.8914 20.188C21.9941 20.892 22.0454 21.6327 22.0454 22.41C22.0454 24.8593 21.5467 26.7807 20.5494 28.174C19.5521 29.5673 18.1807 30.264 16.4354 30.264C14.6461 30.264 13.2454 29.5747 12.2334 28.196C11.2361 26.8027 10.7374 24.874 10.7374 22.41C10.7374 21.4273 10.8327 20.5033 11.0234 19.638C11.2141 18.758 11.5147 17.922 11.9254 17.13C12.3361 16.3233 12.9227 15.6853 13.6854 15.216C14.4627 14.7467 15.3721 14.512 16.4134 14.512ZM16.3914 17.086C15.9807 17.086 15.6214 17.174 15.3134 17.35C15.0054 17.526 14.7561 17.79 14.5654 18.142C14.3894 18.4793 14.2427 18.8093 14.1254 19.132C14.0227 19.44 13.9494 19.8507 13.9054 20.364C13.8614 20.8627 13.8321 21.244 13.8174 21.508C13.8174 21.772 13.8174 22.124 13.8174 22.564C13.8174 26.0107 14.6827 27.734 16.4134 27.734C18.1147 27.734 18.9654 25.9593 18.9654 22.41C18.9654 20.5767 18.7601 19.2347 18.3494 18.384C17.9387 17.5187 17.2861 17.086 16.3914 17.086ZM34.116 27.294V30H22.83C22.8447 29.3107 22.9327 28.68 23.094 28.108C23.27 27.5213 23.468 27.03 23.688 26.634C23.9227 26.238 24.2747 25.82 24.744 25.38C25.2133 24.94 25.624 24.588 25.976 24.324C26.3427 24.06 26.8707 23.6933 27.56 23.224C27.648 23.1653 27.8827 23.0113 28.264 22.762C28.6453 22.5127 28.9093 22.3367 29.056 22.234C29.2027 22.1313 29.4227 21.9553 29.716 21.706C30.0093 21.442 30.2147 21.2147 30.332 21.024C30.464 20.8333 30.5887 20.5987 30.706 20.32C30.8233 20.0267 30.882 19.726 30.882 19.418C30.882 18.7433 30.6767 18.208 30.266 17.812C29.87 17.4013 29.342 17.196 28.682 17.196C27.098 17.196 26.262 18.3107 26.174 20.54H23.182V20.21C23.182 18.4647 23.688 17.0787 24.7 16.052C25.712 15.0107 27.076 14.49 28.792 14.49C30.3467 14.49 31.608 14.93 32.576 15.81C33.544 16.6753 34.028 17.8047 34.028 19.198C34.028 20.3273 33.7713 21.2293 33.258 21.904C32.7447 22.5787 31.938 23.29 30.838 24.038C30.6913 24.1407 30.42 24.324 30.024 24.588C29.628 24.8373 29.3127 25.0427 29.078 25.204C28.858 25.3653 28.5867 25.5707 28.264 25.82C27.9413 26.0693 27.6627 26.3187 27.428 26.568C27.1933 26.8027 26.9953 27.0447 26.834 27.294H34.116Z" fill="white"/>
</svg>
