<svg width="52" height="60" viewBox="0 0 52 60" fill="none" xmlns="http://www.w3.org/2000/svg">
<path fill-rule="evenodd" clip-rule="evenodd" d="M51.8741 16.4272L51.8142 15.1544L26 0L0.185809 15.1544L0.125902 16.4272C-0.386565 27.3159 0.588008 35.446 4.4846 42.2352C8.37893 49.0205 14.9842 54.1044 24.8637 59.3919L26 60L27.1363 59.3919C37.0158 54.1044 43.6211 49.0205 47.5154 42.2352C51.412 35.446 52.3866 27.3159 51.8741 16.4272ZM8.63857 39.9004C11.7353 45.296 17.0611 49.7144 26 54.6179C30.0774 52.3812 33.4031 50.2454 36.1083 48.0718C37.5808 46.8887 38.8695 45.6943 39.9956 44.4664C41.3361 43.0046 42.4461 41.4952 43.3614 39.9004C44.152 38.523 44.8097 37.0601 45.345 35.4802L21.054 21.8046L26.092 18.847L46.5885 30.3864C47.1667 26.8498 47.3316 22.7673 47.1551 17.9161L26 5.49685L4.84491 17.9161C4.75621 20.3548 4.75375 22.5993 4.84671 24.6779L30.0444 38.864C28.9329 40.1015 27.6585 41.3038 26.1998 42.4935L5.48712 30.8323C6.09911 34.3155 7.12573 37.2645 8.63857 39.9004Z" fill="#0070EB"/>
</svg>
