<svg width="22" height="22" viewBox="0 0 22 22" fill="none" xmlns="http://www.w3.org/2000/svg">
<g opacity="0.4">
<path d="M19.4655 1.82707C19.287 1.83227 19.1175 1.90675 18.9929 2.03475L2.03455 18.9931C1.96857 19.0564 1.91589 19.1323 1.8796 19.2163C1.84332 19.3002 1.82415 19.3906 1.82322 19.4821C1.82229 19.5735 1.83961 19.6643 1.87419 19.7489C1.90876 19.8336 1.95989 19.9106 2.02456 19.9752C2.08924 20.0399 2.16618 20.091 2.25086 20.1256C2.33554 20.1602 2.42627 20.1775 2.51774 20.1766C2.6092 20.1757 2.69956 20.1565 2.78353 20.1202C2.86749 20.0839 2.94337 20.0312 3.00672 19.9653L7.75298 15.219C8.56362 16.0963 9.71662 16.6513 10.9998 16.6513C13.4427 16.6513 15.4319 14.662 15.4319 12.2237C15.4319 10.9405 14.8769 9.78411 13.9996 8.97241L16.0656 6.90633C18.2894 8.20835 20.0147 10.3111 20.6481 12.7734C20.726 13.085 21.0052 13.2917 21.3123 13.2917C21.3673 13.2917 21.4265 13.2867 21.4815 13.2684C21.8527 13.1767 22.0728 12.8016 21.9765 12.435C21.2708 9.68378 19.4612 7.36683 17.0853 5.88672L19.9651 3.00692C20.0642 2.91032 20.132 2.78603 20.1593 2.65032C20.1867 2.5146 20.1725 2.37378 20.1185 2.24629C20.0645 2.1188 19.9733 2.01057 19.8568 1.93577C19.7403 1.86097 19.6039 1.82308 19.4655 1.82707ZM10.9953 4.125C5.87574 4.125 1.26058 7.61789 0.0230751 12.435C-0.0731749 12.8016 0.146861 13.1767 0.518111 13.2684C0.884778 13.3646 1.25986 13.1446 1.35153 12.7734C2.41944 8.62544 6.56783 5.5 10.9953 5.5C11.7791 5.5 12.5533 5.59586 13.3004 5.78377L14.4284 4.65674C13.3329 4.30841 12.1778 4.125 10.9953 4.125ZM10.9998 7.79167C8.55688 7.79167 6.57223 9.7808 6.57223 12.2237C6.57223 12.3154 6.5766 12.4113 6.58118 12.503L11.2836 7.80062C11.1873 7.79604 11.0961 7.79167 10.9998 7.79167Z" fill="#231F20"/>
</g>
</svg>
