<svg width="22" height="13" viewBox="0 0 22 13" fill="none" xmlns="http://www.w3.org/2000/svg">
<path d="M10.9938 0.125C5.80569 0.125 1.23435 3.72105 0.0215988 8.43319C-0.0237479 8.60983 0.00293203 8.79724 0.0957692 8.95421C0.188606 9.11118 0.339996 9.22484 0.516634 9.27018C0.693273 9.31553 0.88069 9.28885 1.03766 9.19601C1.19462 9.10318 1.30828 8.95179 1.35363 8.77515C2.39863 4.71479 6.44701 1.5 10.9938 1.5C15.5407 1.5 19.6019 4.71592 20.6466 8.77515C20.6919 8.95179 20.8056 9.10318 20.9626 9.19601C21.1195 9.28885 21.307 9.31553 21.4836 9.27018C21.6602 9.22484 21.8116 9.11118 21.9045 8.95421C21.9973 8.79724 22.024 8.60983 21.9786 8.43319C20.7656 3.71992 16.182 0.125 10.9938 0.125ZM11.001 3.79167C8.56264 3.79167 6.57165 5.78267 6.57165 8.22103C6.57165 10.6594 8.56264 12.6513 11.001 12.6513C13.4394 12.6513 15.4313 10.6594 15.4313 8.22103C15.4313 5.78267 13.4394 3.79167 11.001 3.79167Z" fill="#2F69FF"/>
</svg>
