<svg width="22" height="22" viewBox="0 0 22 22" fill="none" xmlns="http://www.w3.org/2000/svg">
<path d="M4.35418 4.5835C2.97011 4.5835 1.83334 5.72027 1.83334 7.10433V13.9793C1.83334 15.3634 2.97011 16.5002 4.35418 16.5002H16.2708C17.6549 16.5002 18.7917 15.3634 18.7917 13.9793V7.10433C18.7917 5.72027 17.6549 4.5835 16.2708 4.5835H4.35418ZM4.35418 5.9585H16.2708C16.9117 5.9585 17.4167 6.46348 17.4167 7.10433V7.79183H3.20834V7.10433C3.20834 6.46348 3.71332 5.9585 4.35418 5.9585ZM19.7083 6.88859V13.9793C19.7083 15.8768 18.1683 17.4168 16.2708 17.4168H4.59677C5.12844 18.2418 6.05459 18.7918 7.10418 18.7918H16.2708C18.9246 18.7918 21.0833 16.6331 21.0833 13.9793V9.396C21.0833 8.34641 20.5333 7.42026 19.7083 6.88859ZM3.20834 9.16683H17.4167V13.9793C17.4167 14.6202 16.9117 15.1252 16.2708 15.1252H4.35418C3.71332 15.1252 3.20834 14.6202 3.20834 13.9793V9.16683ZM13.0625 12.3752C12.9714 12.3739 12.881 12.3907 12.7964 12.4247C12.7119 12.4586 12.6349 12.5091 12.5701 12.5731C12.5052 12.637 12.4537 12.7132 12.4185 12.7973C12.3833 12.8813 12.3652 12.9715 12.3652 13.0627C12.3652 13.1538 12.3833 13.244 12.4185 13.328C12.4537 13.4121 12.5052 13.4883 12.5701 13.5523C12.6349 13.6162 12.7119 13.6667 12.7964 13.7006C12.881 13.7346 12.9714 13.7514 13.0625 13.7502H15.3542C15.4453 13.7514 15.5357 13.7346 15.6203 13.7006C15.7048 13.6667 15.7818 13.6162 15.8466 13.5523C15.9115 13.4883 15.963 13.4121 15.9982 13.328C16.0334 13.244 16.0515 13.1538 16.0515 13.0627C16.0515 12.9715 16.0334 12.8813 15.9982 12.7973C15.963 12.7132 15.9115 12.637 15.8466 12.5731C15.7818 12.5091 15.7048 12.4586 15.6203 12.4247C15.5357 12.3907 15.4453 12.3739 15.3542 12.3752H13.0625Z" fill="#50597C"/>
</svg>
