<svg width="67" height="25" viewBox="0 0 67 25" fill="none" xmlns="http://www.w3.org/2000/svg">
<path d="M1.44947 8.76672L9.30657 1.58321C10.4222 0.563215 11.8899 0.00146484 13.4401 0.00146484H61.846C64.6878 0.00146484 67 2.18846 67 4.87646V19.1265C67 21.8145 64.6878 24.0015 61.846 24.0015H13.4409C11.8907 24.0015 10.4222 23.4397 9.30736 22.4205L1.45026 15.237C0.51461 14.3812 0 13.233 0 12.0022C0 10.7715 0.51461 9.62172 1.44947 8.76672ZM8.7317 13.5015C9.60788 13.5015 10.3175 12.8302 10.3175 12.0015C10.3175 11.1727 9.60788 10.5015 8.7317 10.5015C7.85551 10.5015 7.14585 11.1727 7.14585 12.0015C7.14585 12.8302 7.85551 13.5015 8.7317 13.5015Z" fill="#FFE600"/>
</svg>
