<svg width="320" height="103" viewBox="0 0 320 103" fill="none" xmlns="http://www.w3.org/2000/svg">
<path d="M52.0411 27.6414C52.0411 40.3086 43.5621 50.9297 32.1483 53.7763C30.1833 54.2664 28.1313 54.5261 26.0206 54.5261C11.6498 54.5261 0 42.4894 0 27.6414C0 12.7934 11.6498 0.756775 26.0206 0.756775C40.3913 0.756775 52.0411 12.7934 52.0411 27.6414Z" fill="#0070EB"/>
<path d="M475.085 44.9864C475.085 54.8745 469.918 63.5158 462.222 68.1856C458.362 70.528 453.865 71.871 449.064 71.871C442.712 71.871 436.892 69.5193 432.374 65.6126C426.671 60.681 423.044 53.2713 423.044 44.9864C423.044 30.1384 434.694 18.1017 449.064 18.1017C463.435 18.1017 475.085 30.1384 475.085 44.9864Z" fill="#0070EB"/>
<path d="M84.0762 51.2517C84.0762 64.1373 75.3023 74.9055 63.5905 77.5269C61.8068 77.9261 59.955 78.1364 58.0556 78.1364C44.5089 78.1364 33.38 67.4405 32.1483 53.7763C32.0734 52.9452 32.0351 52.1031 32.0351 51.2517C32.0351 36.4037 43.6849 24.367 58.0556 24.367C72.4264 24.367 84.0762 36.4037 84.0762 51.2517Z" fill="#0070EB"/>
<path d="M514.256 67.5348C514.256 78.7948 507.556 88.438 498.05 92.441C495.022 93.7166 491.708 94.4195 488.235 94.4195C474.075 94.4195 462.556 82.7329 462.222 68.1856C462.217 67.9693 462.214 67.7524 462.214 67.5348C462.214 52.6868 473.864 40.6501 488.235 40.6501C502.606 40.6501 514.256 52.6868 514.256 67.5348Z" fill="#0070EB"/>
<path d="M114.714 70.4256C114.714 76.1973 112.954 81.5442 109.958 85.9244C105.246 92.8126 97.4783 97.3103 88.6937 97.3103C76.702 97.3103 66.605 88.9291 63.5905 77.5269C62.9924 75.2647 62.6732 72.8837 62.6732 70.4256C62.6732 55.5776 74.323 43.541 88.6937 43.541C103.064 43.541 114.714 55.5776 114.714 70.4256Z" fill="#0070EB"/>
<path d="M547.271 80.2544C547.271 85.2965 545.928 90.0143 543.59 94.0467C539.045 101.889 530.741 107.139 521.25 107.139C511.126 107.139 502.351 101.164 498.05 92.441C496.247 88.7829 495.23 84.6414 495.23 80.2544C495.23 65.4064 506.88 53.3698 521.25 53.3698C535.621 53.3698 547.271 65.4064 547.271 80.2544Z" fill="#0070EB"/>
<path d="M157.242 70.4256C157.242 75.3163 155.979 79.902 153.77 83.8531C149.273 91.8971 140.859 97.3103 131.222 97.3103C122.437 97.3103 114.669 92.8126 109.958 85.9244C106.962 81.5442 105.201 76.1973 105.201 70.4256C105.201 55.5776 116.851 43.541 131.222 43.541C145.593 43.541 157.242 55.5776 157.242 70.4256Z" fill="#0070EB"/>
<path d="M579.727 69.2693C579.727 75.0569 577.957 80.4173 574.945 84.8043C570.231 91.672 562.475 96.1539 553.706 96.1539C550.118 96.1539 546.7 95.4037 543.59 94.0467C534.245 89.9685 527.686 80.4103 527.686 69.2693C527.686 54.4213 539.335 42.3846 553.706 42.3846C568.077 42.3846 579.727 54.4213 579.727 69.2693Z" fill="#0070EB"/>
<path d="M317.236 64.1864C317.204 64.3347 317.171 64.4824 317.136 64.6296C313.809 78.8604 300.036 87.7556 286.156 84.5425C279.785 83.0675 274.487 79.2946 270.898 74.2575C266.587 68.2083 264.74 60.3359 266.454 52.4302C269.596 37.9415 283.511 28.8277 297.534 32.0741C311.557 35.3205 320.378 49.6976 317.236 64.1864Z" fill="#0070EB"/>
<path d="M198.141 64.7922C198.141 68.4437 197.436 71.9252 196.16 75.0994C192.246 84.8325 182.957 91.6768 172.12 91.6768C164.96 91.6768 158.475 88.6885 153.77 83.8531C149.032 78.9839 146.099 72.2419 146.099 64.7922C146.099 49.9442 157.749 37.9075 172.12 37.9075C186.491 37.9075 198.141 49.9442 198.141 64.7922Z" fill="#0070EB"/>
<path d="M611.06 60.4626C610.967 66.2893 609.086 71.6525 605.967 76.0035C601.139 82.7385 593.342 87.0486 584.613 86.8996C581.185 86.8412 577.923 86.1003 574.945 84.8043C565.444 80.6683 558.845 70.8787 559.026 59.5747C559.263 44.7288 571.104 32.8925 585.472 33.1377C599.841 33.3828 611.297 45.6166 611.06 60.4626Z" fill="#0070EB"/>
<path d="M360.324 50.8886C359.007 56.9631 355.796 62.0928 351.477 65.7629C345.495 70.8467 337.388 73.13 329.244 71.2447C324.537 70.155 320.415 67.811 317.136 64.6296C310.647 58.3335 307.455 48.7576 309.542 39.1324C312.684 24.6437 326.599 15.5299 340.622 18.7763C354.645 22.0227 363.466 36.3999 360.324 50.8886Z" fill="#0070EB"/>
<path d="M286.506 49.6117C286.506 60.6345 280.085 70.1079 270.898 74.2575C267.709 75.6975 264.188 76.4963 260.485 76.4963C252.276 76.4963 244.955 72.5684 240.186 66.4323C236.606 61.827 234.465 55.9777 234.465 49.6117C234.465 34.7637 246.115 22.727 260.485 22.727C274.856 22.727 286.506 34.7637 286.506 49.6117Z" fill="#0070EB"/>
<path d="M436.427 56.0921C435.663 59.6173 434.26 62.8244 432.374 65.6126C426.507 74.2841 415.958 78.9047 405.347 76.4482C398.044 74.7575 392.151 70.0477 388.625 63.8753C385.381 58.1962 384.139 51.2789 385.645 44.3359C388.787 29.8472 402.702 20.7334 416.725 23.9798C430.748 27.2262 439.569 41.6034 436.427 56.0921Z" fill="#0070EB"/>
<path d="M724.612 39.3253C721.47 53.814 707.555 62.9278 693.532 59.6814C679.508 56.435 670.688 42.0579 673.83 27.5691C676.972 13.0804 690.887 3.96664 704.91 7.21302C718.933 10.4594 727.754 24.8366 724.612 39.3253Z" fill="#0070EB"/>
<path d="M683.762 52.6231C680.62 67.1118 666.705 76.2256 652.682 72.9792C651.978 72.8162 651.287 72.6251 650.61 72.4074C646.006 70.9267 642.048 68.2128 639.005 64.7043C633.584 58.4536 631.069 49.6809 632.98 40.8669C636.122 26.3782 650.037 17.2644 664.06 20.5108C678.083 23.7572 686.904 38.1343 683.762 52.6231Z" fill="#0070EB"/>
<path d="M702.027 78.4054C701.594 80.399 700.958 82.2909 700.146 84.0628C695.053 95.1682 683.04 101.561 670.947 98.7615C658.792 95.9476 650.545 84.7708 650.61 72.4074C650.62 70.5074 650.826 68.5793 651.245 66.6492C654.387 52.1605 668.302 43.0467 682.325 46.2931C696.348 49.5395 705.169 63.9166 702.027 78.4054Z" fill="#0070EB"/>
<path d="M641.794 57.2484C641.211 59.933 640.259 62.4331 639.005 64.7043C633.491 74.6902 622.138 80.2494 610.713 77.6045C609.055 77.2205 607.469 76.6808 605.967 76.0035C594.771 70.9554 588.241 58.2672 591.012 45.4922C594.154 31.0035 608.069 21.8898 622.092 25.1361C636.115 28.3825 644.936 42.7597 641.794 57.2484Z" fill="#0070EB"/>
<path d="M733.005 64.1864C731.931 69.1426 729.595 73.4699 726.426 76.8886C720.331 83.464 711.151 86.6784 701.925 84.5425C701.322 84.4029 700.729 84.2427 700.146 84.0628C687.166 80.0594 679.216 66.2959 682.223 52.4302C685.365 37.9415 699.28 28.8277 713.304 32.0741C727.327 35.3205 736.147 49.6976 733.005 64.1864Z" fill="#0070EB"/>
<path d="M775.534 71.7025C775.232 73.0934 774.831 74.4348 774.34 75.7205C769.719 87.8272 757.13 94.9934 744.453 92.0587C736.156 90.1378 729.68 84.3203 726.426 76.8886C724.18 71.7599 723.469 65.8625 724.752 59.9464C727.894 45.4576 741.809 36.3439 755.832 39.5903C769.855 42.8366 778.676 57.2138 775.534 71.7025Z" fill="#0070EB"/>
<path d="M821.979 67.6554C821.526 69.7427 820.85 71.7185 819.982 73.5619C814.825 84.5136 802.901 90.7902 790.899 88.0115C783.707 86.3466 777.884 81.7541 774.34 75.7205C770.975 69.9891 769.666 62.9574 771.197 55.8992C774.339 41.4104 788.254 32.2967 802.277 35.5431C816.3 38.7895 825.121 53.1666 821.979 67.6554Z" fill="#0070EB"/>
<path d="M867.865 65.9209C864.722 80.4096 850.807 89.5234 836.784 86.277C829.425 84.5733 823.498 79.804 819.982 73.5619C816.798 67.9096 815.589 61.0498 817.082 54.1647C820.225 39.676 834.14 30.5622 848.163 33.8086C860.851 36.7459 869.28 48.7955 868.442 61.7953C868.354 63.1632 868.164 64.5415 867.865 65.9209Z" fill="#0070EB"/>
<path d="M910.952 47.4196C908.865 57.0461 902.022 64.2997 893.551 67.132C889.272 68.5626 884.578 68.8652 879.872 67.7757C875.484 66.7598 871.605 64.6537 868.442 61.7953C861.5 55.5199 858.012 45.618 860.17 35.6634C863.312 21.1747 877.227 12.061 891.25 15.3073C905.274 18.5537 914.094 32.9309 910.952 47.4196Z" fill="#0070EB"/>
<path d="M943.968 80.375C940.826 94.8637 926.911 103.977 912.888 100.731C898.864 97.4847 890.044 83.1076 893.186 68.6188C893.295 68.1167 893.416 67.621 893.551 67.132C897.292 53.5132 910.729 45.1288 924.266 48.2627C936.729 51.1479 945.083 62.8248 944.582 75.5582C944.519 77.1523 944.317 78.7629 943.968 80.375Z" fill="#0070EB"/>
<path d="M978.662 56.0921C975.52 70.5808 961.605 79.6946 947.582 76.4482C946.553 76.21 945.552 75.9119 944.582 75.5582C932.329 71.0914 924.968 57.7616 927.88 44.3359C931.022 29.8472 944.937 20.7334 958.96 23.9798C972.983 27.2262 981.804 41.6034 978.662 56.0921Z" fill="#0070EB"/>
<path d="M241.234 58.9705C241.234 61.5636 240.868 64.0683 240.186 66.4323C237.079 77.1987 227.424 85.0484 215.994 85.0484C207.948 85.0484 200.781 81.1585 196.16 75.0994C192.774 70.6614 190.754 65.0597 190.754 58.9705C190.754 44.568 202.055 32.8925 215.994 32.8925C229.934 32.8925 241.234 44.568 241.234 58.9705Z" fill="#0070EB"/>
<path d="M390.291 58.9764C389.915 60.7095 389.351 62.3484 388.625 63.8753C384.393 72.7805 374.675 77.8762 364.892 75.6115C359.093 74.269 354.383 70.5972 351.477 65.7629C348.641 61.0442 347.524 55.2178 348.792 49.3692C351.36 37.529 362.731 30.0812 374.191 32.7341C385.65 35.3871 392.859 47.1361 390.291 58.9764Z" fill="#0070EB"/>
<path d="M32.1483 53.7763C30.1833 54.2664 28.1313 54.5261 26.0206 54.5261C11.6498 54.5261 0 42.4894 0 27.6414V154.757H993.816L978.662 56.0921C975.52 70.5808 961.605 79.6946 947.582 76.4482C946.553 76.21 945.552 75.9119 944.582 75.5582C944.519 77.1523 944.317 78.7629 943.968 80.375C940.826 94.8637 926.911 103.977 912.888 100.731C898.864 97.4847 890.044 83.1076 893.186 68.6188C893.295 68.1167 893.416 67.621 893.551 67.132C889.272 68.5626 884.578 68.8652 879.872 67.7757C875.484 66.7598 871.605 64.6537 868.442 61.7953C868.354 63.1632 868.164 64.5415 867.865 65.9209C864.722 80.4096 850.807 89.5234 836.784 86.277C829.425 84.5733 823.498 79.804 819.982 73.5619C814.825 84.5136 802.901 90.7902 790.899 88.0115C783.707 86.3466 777.884 81.7541 774.34 75.7205C769.719 87.8272 757.13 94.9934 744.453 92.0587C736.156 90.1378 729.68 84.3203 726.426 76.8886C720.331 83.464 711.151 86.6784 701.925 84.5425C701.322 84.4029 700.729 84.2427 700.146 84.0628C695.053 95.1682 683.04 101.561 670.947 98.7615C658.792 95.9476 650.545 84.7708 650.61 72.4074C646.006 70.9267 642.048 68.2128 639.005 64.7043C633.491 74.6902 622.138 80.2494 610.713 77.6045C609.055 77.2205 607.469 76.6808 605.967 76.0035C601.139 82.7385 593.342 87.0486 584.613 86.8996C581.185 86.8412 577.923 86.1003 574.945 84.8043C570.231 91.672 562.475 96.1539 553.706 96.1539C550.118 96.1539 546.7 95.4037 543.59 94.0467C539.045 101.889 530.741 107.139 521.25 107.139C511.126 107.139 502.351 101.164 498.05 92.441C495.022 93.7166 491.708 94.4195 488.235 94.4195C474.075 94.4195 462.556 82.7329 462.222 68.1856C458.362 70.528 453.865 71.871 449.064 71.871C442.712 71.871 436.892 69.5193 432.374 65.6126C426.507 74.2841 415.958 78.9047 405.347 76.4482C398.044 74.7575 392.151 70.0477 388.625 63.8753C384.393 72.7805 374.675 77.8762 364.892 75.6115C359.093 74.269 354.383 70.5972 351.477 65.7629C345.495 70.8467 337.388 73.13 329.244 71.2447C324.537 70.155 320.415 67.811 317.136 64.6296C313.809 78.8604 300.036 87.7556 286.156 84.5425C279.785 83.0675 274.487 79.2946 270.898 74.2575C267.709 75.6975 264.188 76.4963 260.485 76.4963C252.276 76.4963 244.955 72.5684 240.186 66.4323C237.079 77.1987 227.424 85.0484 215.994 85.0484C207.948 85.0484 200.781 81.1585 196.16 75.0994C192.246 84.8325 182.957 91.6768 172.12 91.6768C164.96 91.6768 158.475 88.6885 153.77 83.8531C149.273 91.8971 140.859 97.3103 131.222 97.3103C122.437 97.3103 114.669 92.8126 109.958 85.9244C105.246 92.8126 97.4783 97.3103 88.6937 97.3103C76.702 97.3103 66.605 88.9291 63.5905 77.5269C61.8068 77.9261 59.955 78.1364 58.0556 78.1364C44.5089 78.1364 33.38 67.4405 32.1483 53.7763Z" fill="#0070EB"/>
</svg>
