<svg width="18" height="17" viewBox="0 0 18 17" fill="none" xmlns="http://www.w3.org/2000/svg">
<path opacity="0.5" d="M9 0C8.92744 6.23608e-05 8.85659 0.0218745 8.79674 0.0625773C8.73689 0.10328 8.69084 0.160976 8.66461 0.228097L6.44488 5.90535L0.34183 6.21436C0.269182 6.21801 0.199351 6.2434 0.141536 6.2872C0.0837212 6.33099 0.0406341 6.39113 0.0179511 6.4597C-0.00473187 6.52826 -0.0059459 6.60204 0.0144664 6.67131C0.0348787 6.74057 0.0759593 6.80208 0.1323 6.84773L4.88467 10.7023L3.32375 16.5512C3.30511 16.6208 3.30814 16.6944 3.33242 16.7623C3.35671 16.8302 3.40112 16.8892 3.45982 16.9316C3.51853 16.974 3.58879 16.9978 3.66138 16.9999C3.73396 17.0019 3.80549 16.9822 3.86655 16.9432L9 13.6745L14.1334 16.9432C14.1945 16.9822 14.266 17.0019 14.3386 16.9999C14.4112 16.9978 14.4815 16.974 14.5402 16.9316C14.5989 16.8892 14.6433 16.8302 14.6676 16.7623C14.6919 16.6944 14.6949 16.6208 14.6763 16.5512L13.1153 10.7023L17.8677 6.84773C17.924 6.80208 17.9651 6.74057 17.9855 6.67131C18.0059 6.60204 18.0047 6.52826 17.982 6.4597C17.9594 6.39113 17.9163 6.33099 17.8585 6.2872C17.8006 6.2434 17.7308 6.21801 17.6582 6.21436L11.5551 5.90535L9.33539 0.228097C9.30916 0.160976 9.26311 0.10328 9.20326 0.0625773C9.14341 0.0218745 9.07256 6.23608e-05 9 0ZM9 1.34416L10.968 6.37898C10.9932 6.44328 11.0366 6.49898 11.093 6.53933C11.1494 6.57968 11.2164 6.60297 11.2858 6.60638L16.6893 6.88051L12.4804 10.295C12.4269 10.3383 12.3872 10.396 12.3659 10.4612C12.3445 10.5264 12.3426 10.5963 12.3602 10.6626L13.7432 15.846L9.19476 12.9491C9.13667 12.912 9.06907 12.8923 9 12.8923C8.93093 12.8923 8.86333 12.912 8.80524 12.9491L4.25678 15.846L5.63981 10.6626C5.65742 10.5963 5.65546 10.5264 5.63414 10.4612C5.61282 10.396 5.57305 10.3383 5.51958 10.295L1.31073 6.88051L6.71417 6.60638C6.78362 6.60297 6.85059 6.57968 6.90699 6.53933C6.96339 6.49898 7.0068 6.44328 7.03198 6.37898L9 1.34416Z" fill="#50597C"/>
</svg>
