<svg width="28" height="24" viewBox="0 0 28 24" fill="none" xmlns="http://www.w3.org/2000/svg">
<path d="M27.0605 10.9393L16.5605 0.439312C15.9747 -0.146437 15.0253 -0.146437 14.4395 0.439312C13.8538 1.02506 13.8538 1.97456 14.4395 2.56031L22.379 10.4998H2C1.172 10.4998 0.5 11.1718 0.5 11.9998C0.5 12.8278 1.172 13.4998 2 13.4998H22.379L14.4395 21.4393C13.8538 22.0251 13.8538 22.9746 14.4395 23.5603C14.7327 23.8536 15.116 23.9998 15.5 23.9998C15.884 23.9998 16.2673 23.8536 16.5605 23.5603L27.0605 13.0603C27.6463 12.4746 27.6463 11.5251 27.0605 10.9393Z" fill="#25242C"/>
</svg>
