<svg width="28" height="24" viewBox="0 0 28 24" fill="none" xmlns="http://www.w3.org/2000/svg">
<path d="M0.939499 10.9393L11.4395 0.439312C12.0253 -0.146437 12.9747 -0.146437 13.5605 0.439312C14.1462 1.02506 14.1462 1.97456 13.5605 2.56031L5.621 10.4998H26C26.828 10.4998 27.5 11.1718 27.5 11.9998C27.5 12.8278 26.828 13.4998 26 13.4998H5.621L13.5605 21.4393C14.1462 22.0251 14.1462 22.9746 13.5605 23.5603C13.2673 23.8536 12.884 23.9998 12.5 23.9998C12.116 23.9998 11.7327 23.8536 11.4395 23.5603L0.939499 13.0603C0.353748 12.4746 0.353748 11.5251 0.939499 10.9393Z" fill="#25242C"/>
</svg>
