<svg width="10" height="10" viewBox="0 0 10 10" fill="none" xmlns="http://www.w3.org/2000/svg">
<path d="M8.42284 0.101314C8.28966 -0.0337713 8.07398 -0.0337713 7.94079 0.101314L4.99989 3.08426L2.0592 0.101314C1.92602 -0.0337713 1.71034 -0.0337713 1.57716 0.101314L0.0998864 1.5997C-0.0332955 1.73479 -0.0332955 1.95355 0.0998864 2.08864L2.97023 5L0.0998864 7.91137C-0.0332955 8.04645 -0.0332955 8.26521 0.0998864 8.4003L1.57716 9.89869C1.71034 10.0338 1.92602 10.0338 2.0592 9.89869L4.99989 6.91574L7.94079 9.89869C8.07398 10.0338 8.28966 10.0338 8.42284 9.89869L9.90011 8.40007C10.0333 8.26498 10.0333 8.04622 9.90011 7.91113L7.03 5L9.90011 2.08887C10.0333 1.95378 10.0333 1.73502 9.90011 1.59993L8.42284 0.101314Z" fill="#25242C"/>
</svg>
