<svg width="28" height="38" viewBox="0 0 28 38" fill="none" xmlns="http://www.w3.org/2000/svg">
<path d="M11.2 0.799805C10.8287 0.799805 10.4726 0.947304 10.21 1.20986C9.9475 1.47241 9.8 1.8285 9.8 2.1998C9.8 9.2796 0 14.7998 0 24.5998C0 32.0448 8.06889 36.8581 10.9102 37.1697C11.0055 37.1898 11.1026 37.1999 11.2 37.1998C11.5713 37.1998 11.9274 37.0523 12.1899 36.7898C12.4525 36.5272 12.6 36.1711 12.6 35.7998C12.5999 35.5918 12.5535 35.3865 12.4641 35.1987C12.3747 35.011 12.2446 34.8455 12.0832 34.7143C12.0832 34.7133 12.0832 34.7124 12.0832 34.7115C10.8092 33.6783 8.4 30.6809 8.4 27.9439C8.4 23.4513 12.6 21.7998 12.6 21.7998C10.2046 28.5758 18.0536 29.3945 19.6328 36.1033H19.6355C19.7045 36.4139 19.8773 36.6918 20.1253 36.8911C20.3733 37.0904 20.6818 37.1993 21 37.1998C21.2948 37.1991 21.5819 37.1053 21.8203 36.9318C21.8456 36.9135 21.8702 36.8944 21.8941 36.8744C22.122 36.7264 28 32.8388 28 24.5998C28 21.2361 26.3177 15.4585 25.107 12.8994C25.106 12.8973 25.1053 12.8933 25.1043 12.8912C25.1034 12.8894 25.1025 12.8876 25.1016 12.8857C24.9985 12.6246 24.8192 12.4005 24.5871 12.2425C24.355 12.0845 24.0808 11.9999 23.8 11.9998C23.473 12.0001 23.1565 12.1149 22.9053 12.3241C22.654 12.5334 22.484 12.824 22.4246 13.1455C22.4246 13.1473 22.4246 13.1492 22.4246 13.151C22.4212 13.1663 21.7782 16.022 19.6 17.5998C19.6 11.0035 14.8377 4.19006 12.3266 1.37129C12.2889 1.32025 12.2478 1.27183 12.2035 1.22637C12.0733 1.09175 11.9174 0.98464 11.745 0.91137C11.5726 0.8381 11.3873 0.800163 11.2 0.799805Z" fill="#FF3156"/>
</svg>
