<svg width="12" height="14" viewBox="0 0 12 14" fill="none" xmlns="http://www.w3.org/2000/svg">
<path d="M4.93268 0.0664062C4.79123 0.0664063 4.65558 0.122597 4.55556 0.222616C4.45554 0.322635 4.39935 0.458291 4.39935 0.59974C4.39935 3.29681 0.666016 5.39974 0.666016 9.13307C0.666016 11.9693 3.73988 13.8029 4.82227 13.9216C4.85857 13.9293 4.89558 13.9331 4.93268 13.9331C5.07413 13.9331 5.20979 13.8769 5.30981 13.7769C5.40982 13.6768 5.46602 13.5412 5.46602 13.3997C5.46598 13.3205 5.44829 13.2423 5.41423 13.1708C5.38018 13.0992 5.33061 13.0362 5.26914 12.9862C5.26914 12.9859 5.26914 12.9855 5.26914 12.9852C4.78381 12.5916 3.86602 11.4497 3.86602 10.407C3.86602 8.69556 5.46602 8.06641 5.46602 8.06641C4.55348 10.6477 7.54358 10.9596 8.14518 13.5154H8.14622C8.1725 13.6337 8.2383 13.7395 8.33279 13.8155C8.42727 13.8914 8.5448 13.9329 8.66602 13.9331C8.77833 13.9328 8.8877 13.8971 8.97851 13.831C8.98813 13.824 8.99751 13.8167 9.00664 13.8091C9.09344 13.7527 11.3327 12.2718 11.3327 9.13307C11.3327 7.85168 10.6918 5.65067 10.2306 4.67578C10.2302 4.67498 10.2299 4.67346 10.2296 4.67266C10.2292 4.67196 10.2289 4.67127 10.2285 4.67057C10.1892 4.57108 10.121 4.4857 10.0325 4.42552C9.94412 4.36533 9.83964 4.33312 9.73268 4.33307C9.60812 4.33319 9.48754 4.3769 9.39183 4.45662C9.29613 4.53634 9.23135 4.64705 9.20872 4.76953C9.20872 4.77023 9.20872 4.77092 9.20872 4.77161C9.20742 4.77744 8.96246 5.86535 8.13268 6.46641C8.13268 3.95353 6.31848 1.35793 5.36185 0.284115C5.34749 0.264671 5.33183 0.246226 5.31497 0.228906C5.26536 0.177625 5.20596 0.13682 5.1403 0.108907C5.07463 0.080995 5.00403 0.0665427 4.93268 0.0664062Z" fill="#FF3156"/>
</svg>
