<svg width="20" height="20" viewBox="0 0 20 20" fill="none" xmlns="http://www.w3.org/2000/svg">
<path d="M9.98928 0.365318C9.8071 0.368164 9.6335 0.443205 9.50661 0.573957C9.37972 0.70471 9.30991 0.880482 9.31253 1.06267V1.78508C5.31253 2.11753 2.11739 5.31267 1.78494 9.31267H1.06253C0.971424 9.31138 0.880975 9.32821 0.796434 9.36218C0.711893 9.39615 0.634948 9.44659 0.570068 9.51056C0.505189 9.57452 0.453671 9.65075 0.418507 9.7348C0.383343 9.81885 0.365234 9.90905 0.365234 10.0002C0.365234 10.0913 0.383343 10.1815 0.418507 10.2655C0.453671 10.3496 0.505189 10.4258 0.570068 10.4898C0.634948 10.5537 0.711893 10.6042 0.796434 10.6382C0.880975 10.6721 0.971424 10.689 1.06253 10.6877H1.78494C2.11739 14.6877 5.31253 17.8828 9.31253 18.2153V18.9377C9.31124 19.0288 9.32807 19.1192 9.36204 19.2038C9.39601 19.2883 9.44645 19.3652 9.51042 19.4301C9.57438 19.495 9.65061 19.5465 9.73466 19.5817C9.81871 19.6168 9.90892 19.635 10 19.635C10.0911 19.635 10.1813 19.6168 10.2654 19.5817C10.3494 19.5465 10.4257 19.495 10.4896 19.4301C10.5536 19.3652 10.604 19.2883 10.638 19.2038C10.672 19.1192 10.6888 19.0288 10.6875 18.9377V18.2153C12.4091 18.0722 13.9836 17.4047 15.244 16.364C16.912 14.9868 18.0257 12.9661 18.2151 10.6877H18.9375C18.9605 10.6879 18.9835 10.687 19.0065 10.685C19.1833 10.669 19.3472 10.5852 19.4637 10.4511C19.5802 10.317 19.6402 10.1431 19.6313 9.9657C19.6224 9.78832 19.5452 9.62126 19.4159 9.49953C19.2865 9.3778 19.1151 9.31083 18.9375 9.31267H18.2151C18.2109 9.26148 18.2122 9.20872 18.2071 9.1578C17.953 6.66522 16.5847 4.4968 14.6093 3.16097C13.4715 2.39156 12.1307 1.90503 10.6875 1.78508V1.06267C10.6888 0.970648 10.6717 0.879301 10.637 0.79404C10.6024 0.708779 10.551 0.631338 10.4859 0.566307C10.4208 0.501276 10.3433 0.449978 10.258 0.415453C10.1727 0.380929 10.0813 0.36388 9.98928 0.365318ZM9.31253 3.16008V3.81267C9.31124 3.90377 9.32807 3.99422 9.36204 4.07876C9.39601 4.1633 9.44645 4.24024 9.51042 4.30512C9.57438 4.37 9.65061 4.42152 9.73466 4.45668C9.81871 4.49185 9.90892 4.50996 10 4.50996C10.0911 4.50996 10.1813 4.49185 10.2654 4.45668C10.3494 4.42152 10.4257 4.37 10.4896 4.30512C10.5536 4.24024 10.604 4.1633 10.638 4.07876C10.672 3.99422 10.6888 3.90377 10.6875 3.81267V3.16008C11.8515 3.27494 12.9289 3.67707 13.8475 4.29696C14.9445 5.03725 15.8152 6.08654 16.3361 7.32088C16.5966 7.93806 16.769 8.60114 16.8392 9.29566C16.8398 9.30125 16.8396 9.30707 16.8401 9.31267H16.1875C16.0964 9.31138 16.006 9.32821 15.9214 9.36218C15.8369 9.39615 15.7599 9.44659 15.6951 9.51056C15.6302 9.57452 15.5787 9.65075 15.5435 9.7348C15.5083 9.81885 15.4902 9.90905 15.4902 10.0002C15.4902 10.0913 15.5083 10.1815 15.5435 10.2655C15.5787 10.3496 15.6302 10.4258 15.6951 10.4898C15.7599 10.5537 15.8369 10.6042 15.9214 10.6382C16.006 10.6721 16.0964 10.689 16.1875 10.6877H16.8401C16.7938 11.1566 16.7023 11.6113 16.5671 12.0474C16.1662 13.3402 15.3947 14.468 14.3766 15.3077C13.3585 16.1474 12.0936 16.6989 10.7045 16.8394C10.6989 16.8399 10.6931 16.8397 10.6875 16.8403V16.1877C10.6888 16.0956 10.6717 16.0043 10.637 15.919C10.6024 15.8338 10.551 15.7563 10.4859 15.6913C10.4208 15.6263 10.3433 15.575 10.258 15.5405C10.1727 15.5059 10.0813 15.4889 9.98928 15.4903C9.8071 15.4932 9.6335 15.5682 9.50661 15.699C9.37972 15.8297 9.30991 16.0055 9.31253 16.1877V16.8403C9.07526 16.8168 8.84196 16.7823 8.61249 16.7355C5.69442 16.1405 3.45769 13.705 3.15994 10.6877H3.81253C3.83553 10.6879 3.85854 10.687 3.88146 10.685C4.05834 10.669 4.22219 10.5852 4.33867 10.4511C4.45515 10.317 4.51523 10.1431 4.50632 9.9657C4.49741 9.78832 4.42021 9.62126 4.29088 9.49953C4.16155 9.3778 3.99013 9.31083 3.81253 9.31267H3.15994C3.16049 9.30707 3.16027 9.30125 3.16083 9.29566C3.48919 6.049 6.06354 3.48069 9.31253 3.16008ZM10 7.7085C9.29343 7.7085 8.67643 7.99823 8.28307 8.44076C7.88971 8.88329 7.70836 9.44635 7.70836 10.0002C7.70836 10.554 7.88971 11.117 8.28307 11.5596C8.67643 12.0021 9.29343 12.2918 10 12.2918C10.7066 12.2918 11.3236 12.0021 11.717 11.5596C12.1103 11.117 12.2917 10.554 12.2917 10.0002C12.2917 9.44635 12.1103 8.88329 11.717 8.44076C11.3236 7.99823 10.7066 7.7085 10 7.7085ZM10 9.0835C10.3629 9.0835 10.548 9.19481 10.6893 9.35384C10.8307 9.51287 10.9167 9.7519 10.9167 10.0002C10.9167 10.2484 10.8307 10.4875 10.6893 10.6465C10.548 10.8055 10.3629 10.9168 10 10.9168C9.63718 10.9168 9.4521 10.8055 9.31074 10.6465C9.16938 10.4875 9.08336 10.2484 9.08336 10.0002C9.08336 9.9381 9.08831 9.87646 9.09858 9.81665C9.1294 9.63724 9.20472 9.47312 9.31074 9.35384C9.4521 9.19481 9.63718 9.0835 10 9.0835Z" fill="#25242C"/>
</svg>
