<svg width="18" height="18" viewBox="0 0 18 18" fill="none" xmlns="http://www.w3.org/2000/svg">
<path d="M7.38509 0.740274C7.35148 0.7411 7.31797 0.744391 7.28483 0.750121H1.4375C1.25517 0.750139 1.08031 0.822578 0.951384 0.951505C0.822457 1.08043 0.750018 1.25529 0.75 1.43762V14.7293C0.75 16.1134 1.88677 17.2501 3.27083 17.2501H14.7292C16.1132 17.2501 17.25 16.1134 17.25 14.7293V1.43762C17.25 1.25529 17.1775 1.08043 17.0486 0.951505C16.9197 0.822578 16.7448 0.750139 16.5625 0.750121H10.717C10.6432 0.737997 10.5679 0.737997 10.4941 0.750121H7.50863C7.46783 0.743127 7.42648 0.739831 7.38509 0.740274ZM2.125 2.12512H6.70833V5.56262C6.70833 6.44031 7.43481 7.16679 8.3125 7.16679H9.6875C10.5652 7.16679 11.2917 6.44031 11.2917 5.56262V2.12512H15.875V14.7293C15.875 15.3701 15.37 15.8751 14.7292 15.8751H3.27083C2.62998 15.8751 2.125 15.3701 2.125 14.7293V2.12512ZM8.08333 2.12512H9.91667V5.56262C9.91667 5.69785 9.82273 5.79179 9.6875 5.79179H8.3125C8.17727 5.79179 8.08333 5.69785 8.08333 5.56262V2.12512ZM11.2845 10.3689C11.1631 10.3708 11.0474 10.4207 10.9628 10.5078C10.8782 10.5949 10.8317 10.712 10.8333 10.8335V11.7501C10.8325 11.8109 10.8437 11.8712 10.8663 11.9275C10.889 11.9839 10.9226 12.0352 10.9653 12.0784C11.0079 12.1217 11.0587 12.156 11.1148 12.1795C11.1708 12.2029 11.2309 12.215 11.2917 12.215C11.3524 12.215 11.4125 12.2029 11.4686 12.1795C11.5246 12.156 11.5754 12.1217 11.6181 12.0784C11.6607 12.0352 11.6943 11.9839 11.717 11.9275C11.7396 11.8712 11.7509 11.8109 11.75 11.7501V10.8335C11.7508 10.7721 11.7394 10.7113 11.7163 10.6545C11.6932 10.5977 11.6589 10.5461 11.6155 10.5027C11.5721 10.4594 11.5204 10.4252 11.4636 10.4023C11.4067 10.3793 11.3458 10.3679 11.2845 10.3689ZM13.1178 10.3689C12.9964 10.3708 12.8807 10.4207 12.7962 10.5078C12.7116 10.5949 12.665 10.712 12.6667 10.8335V11.7501C12.6658 11.8109 12.677 11.8712 12.6997 11.9275C12.7223 11.9839 12.7559 12.0352 12.7986 12.0784C12.8412 12.1217 12.8921 12.156 12.9481 12.1795C13.0041 12.2029 13.0643 12.215 13.125 12.215C13.1857 12.215 13.2459 12.2029 13.3019 12.1795C13.3579 12.156 13.4088 12.1217 13.4514 12.0784C13.4941 12.0352 13.5277 11.9839 13.5503 11.9275C13.573 11.8712 13.5842 11.8109 13.5833 11.7501V10.8335C13.5842 10.7721 13.5727 10.7113 13.5496 10.6545C13.5265 10.5977 13.4922 10.5461 13.4488 10.5027C13.4054 10.4594 13.3537 10.4252 13.2969 10.4023C13.24 10.3793 13.1792 10.3679 13.1178 10.3689ZM10.8333 13.1251C10.7726 13.1243 10.7123 13.1355 10.6559 13.1581C10.5996 13.1808 10.5483 13.2144 10.505 13.257C10.4618 13.2997 10.4274 13.3505 10.404 13.4065C10.3805 13.4626 10.3685 13.5227 10.3685 13.5835C10.3685 13.6442 10.3805 13.7043 10.404 13.7604C10.4274 13.8164 10.4618 13.8672 10.505 13.9099C10.5483 13.9525 10.5996 13.9861 10.6559 14.0088C10.7123 14.0314 10.7726 14.0426 10.8333 14.0418H13.5833C13.6441 14.0426 13.7044 14.0314 13.7607 14.0088C13.8171 13.9861 13.8684 13.9525 13.9116 13.9099C13.9549 13.8672 13.9892 13.8164 14.0127 13.7604C14.0361 13.7043 14.0482 13.6442 14.0482 13.5835C14.0482 13.5227 14.0361 13.4626 14.0127 13.4065C13.9892 13.3505 13.9549 13.2997 13.9116 13.257C13.8684 13.2144 13.8171 13.1808 13.7607 13.1581C13.7044 13.1355 13.6441 13.1243 13.5833 13.1251H10.8333Z" fill="#25242C"/>
</svg>
