<svg width="24" height="25" viewBox="0 0 24 25" fill="none" xmlns="http://www.w3.org/2000/svg">
<path d="M9.65104 0.985409C9.60215 0.986611 9.5534 0.991398 9.50521 0.999732H1C0.734792 0.999758 0.480453 1.10512 0.292923 1.29265C0.105392 1.48019 2.65169e-05 1.73452 0 1.99973V21.3331C0 23.3462 1.65348 24.9997 3.66667 24.9997H20.3333C22.3465 24.9997 24 23.3462 24 21.3331V1.99973C24 1.73452 23.8946 1.48019 23.7071 1.29265C23.5195 1.10512 23.2652 0.999758 23 0.999732H14.4974C14.39 0.982097 14.2805 0.982097 14.1732 0.999732H9.83073C9.77139 0.989558 9.71125 0.984765 9.65104 0.985409V0.985409ZM2 2.99973H8.66667V7.99973C8.66667 9.27637 9.72336 10.3331 11 10.3331H13C14.2766 10.3331 15.3333 9.27637 15.3333 7.99973V2.99973H22V21.3331C22 22.2652 21.2655 22.9997 20.3333 22.9997H3.66667C2.73452 22.9997 2 22.2652 2 21.3331V2.99973ZM10.6667 2.99973H13.3333V7.99973C13.3333 8.19643 13.1967 8.33307 13 8.33307H11C10.8033 8.33307 10.6667 8.19643 10.6667 7.99973V2.99973ZM15.3229 14.9906C15.1463 14.9934 14.9781 15.0661 14.855 15.1928C14.732 15.3195 14.6642 15.4898 14.6667 15.6664V16.9997C14.6654 17.0881 14.6817 17.1758 14.7147 17.2578C14.7476 17.3397 14.7965 17.4144 14.8586 17.4773C14.9206 17.5402 14.9945 17.5901 15.076 17.6242C15.1575 17.6583 15.245 17.6759 15.3333 17.6759C15.4217 17.6759 15.5092 17.6583 15.5907 17.6242C15.6722 17.5901 15.7461 17.5402 15.8081 17.4773C15.8701 17.4144 15.919 17.3397 15.952 17.2578C15.9849 17.1758 16.0012 17.0881 16 16.9997V15.6664C16.0012 15.5772 15.9845 15.4887 15.9509 15.406C15.9173 15.3234 15.8675 15.2484 15.8043 15.1854C15.7412 15.1224 15.6661 15.0726 15.5834 15.0392C15.5007 15.0057 15.4121 14.9892 15.3229 14.9906ZM17.9896 14.9906C17.813 14.9934 17.6447 15.0661 17.5217 15.1928C17.3987 15.3195 17.3309 15.4898 17.3333 15.6664V16.9997C17.3321 17.0881 17.3484 17.1758 17.3813 17.2578C17.4143 17.3397 17.4632 17.4144 17.5252 17.4773C17.5873 17.5402 17.6612 17.5901 17.7427 17.6242C17.8242 17.6583 17.9117 17.6759 18 17.6759C18.0884 17.6759 18.1758 17.6583 18.2573 17.6242C18.3388 17.5901 18.4127 17.5402 18.4748 17.4773C18.5368 17.4144 18.5857 17.3397 18.6187 17.2578C18.6516 17.1758 18.6679 17.0881 18.6667 16.9997V15.6664C18.6679 15.5772 18.6512 15.4887 18.6176 15.406C18.584 15.3234 18.5341 15.2484 18.471 15.1854C18.4079 15.1224 18.3327 15.0726 18.25 15.0392C18.1673 15.0057 18.0788 14.9892 17.9896 14.9906V14.9906ZM14.6667 18.9997C14.5783 18.9985 14.4906 19.0148 14.4086 19.0477C14.3267 19.0807 14.252 19.1296 14.1891 19.1916C14.1262 19.2537 14.0763 19.3276 14.0422 19.4091C14.0081 19.4906 13.9905 19.578 13.9905 19.6664C13.9905 19.7547 14.0081 19.8422 14.0422 19.9237C14.0763 20.0052 14.1262 20.0791 14.1891 20.1412C14.252 20.2032 14.3267 20.2521 14.4086 20.2851C14.4906 20.318 14.5783 20.3343 14.6667 20.3331H18.6667C18.755 20.3343 18.8427 20.318 18.9247 20.2851C19.0067 20.2521 19.0813 20.2032 19.1442 20.1412C19.2071 20.0791 19.2571 20.0052 19.2912 19.9237C19.3253 19.8422 19.3428 19.7547 19.3428 19.6664C19.3428 19.578 19.3253 19.4906 19.2912 19.4091C19.2571 19.3276 19.2071 19.2537 19.1442 19.1916C19.0813 19.1296 19.0067 19.0807 18.9247 19.0477C18.8427 19.0148 18.755 18.9985 18.6667 18.9997H14.6667Z" fill="#25242C"/>
</svg>
