<svg width="16" height="20" viewBox="0 0 16 20" fill="none" xmlns="http://www.w3.org/2000/svg">
<path d="M7.99935 0.375C7.838 0.374975 7.68177 0.431696 7.55802 0.535238C7.55802 0.535238 5.84953 1.96337 4.1429 4.06047C2.43627 6.15756 0.666016 8.93647 0.666016 11.8333C0.666016 15.7492 3.75789 18.9514 7.62606 19.1479C7.74893 19.1604 7.87329 19.1667 7.99935 19.1667C8.12541 19.1667 8.24976 19.1604 8.37264 19.1479C12.2408 18.9514 15.3327 15.7492 15.3327 11.8333C15.3327 8.73639 13.3164 5.77332 11.5031 3.63704C11.412 3.52961 11.2902 3.45272 11.154 3.41679C11.0178 3.38087 10.8739 3.38762 10.7417 3.43615C10.6094 3.48469 10.4953 3.57265 10.4147 3.68815C10.3341 3.80365 10.2909 3.94111 10.291 4.08195V6.10417C10.291 6.49215 9.99149 6.79167 9.60352 6.79167C9.21554 6.79167 8.91602 6.49215 8.91602 6.10417V1.26213C8.916 1.16481 8.89532 1.0686 8.85535 0.979868C8.81539 0.891135 8.75704 0.811898 8.68416 0.747396C8.53499 0.615273 8.44246 0.537028 8.44246 0.537028C8.31849 0.432445 8.16154 0.375055 7.99935 0.375ZM7.54102 2.41333V6.10417C7.54102 7.23511 8.47258 8.16667 9.60352 8.16667C10.7345 8.16667 11.666 7.23511 11.666 6.10417V6.09522C12.921 7.87572 13.9577 9.94902 13.9577 11.8333C13.9577 13.8348 12.975 15.5967 11.4682 16.6763C11.5945 16.3064 11.666 15.9113 11.666 15.5C11.666 13.9688 10.8272 12.5672 10.0413 11.5093C9.25535 10.4513 8.46574 9.72429 8.46574 9.72429C8.39817 9.66181 8.31874 9.61353 8.23217 9.58232C8.1456 9.5511 8.05364 9.53758 7.96175 9.54256C7.80203 9.55141 7.6504 9.61568 7.53296 9.72429C7.53296 9.72429 6.74335 10.4513 5.95744 11.5093C5.17153 12.5672 4.33268 13.9688 4.33268 15.5C4.33268 15.9113 4.40417 16.3064 4.53052 16.6763C3.0237 15.5967 2.04102 13.8348 2.04102 11.8333C2.04102 9.52124 3.59367 6.91488 5.20996 4.92879C6.10636 3.82731 6.92079 3.00247 7.54102 2.41333ZM7.99935 11.264C8.25872 11.5257 8.46672 11.6967 8.93661 12.3293C9.64028 13.2765 10.291 14.5104 10.291 15.5C10.291 16.694 9.39672 17.6631 8.23568 17.78C8.15796 17.7879 8.07927 17.7917 7.99935 17.7917C7.91973 17.7917 7.84135 17.7878 7.76392 17.78C7.76362 17.78 7.76332 17.78 7.76302 17.78C6.60198 17.6631 5.70768 16.694 5.70768 15.5C5.70768 14.5104 6.35842 13.2765 7.06209 12.3293C7.53198 11.6967 7.73997 11.5257 7.99935 11.264Z" fill="#25242C"/>
</svg>
