<svg width="18" height="18" viewBox="0 0 18 18" fill="none" xmlns="http://www.w3.org/2000/svg">
<path d="M1.42683 0.740318C1.24465 0.743164 1.07105 0.818205 0.944155 0.948957C0.817263 1.07971 0.747457 1.25548 0.750071 1.43767V16.5627C0.750089 16.745 0.822528 16.9199 0.951455 17.0488C1.08038 17.1777 1.25524 17.2501 1.43757 17.2502H16.5626C16.6537 17.2515 16.7441 17.2346 16.8287 17.2006C16.9132 17.1667 16.9902 17.1162 17.055 17.0523C17.1199 16.9883 17.1714 16.9121 17.2066 16.828C17.2418 16.744 17.2599 16.6538 17.2599 16.5627C17.2599 16.4716 17.2418 16.3814 17.2066 16.2973C17.1714 16.2132 17.1199 16.137 17.055 16.0731C16.9902 16.0091 16.9132 15.9587 16.8287 15.9247C16.7441 15.8907 16.6537 15.8739 16.5626 15.8752H15.4141C15.4078 13.9705 15.3284 12.2952 15.1831 10.8335H13.7991C13.9488 12.2952 14.0325 13.9744 14.0391 15.8752H5.33609C5.34266 13.9744 5.42631 12.2952 5.576 10.8335H4.19205C4.04675 12.2952 3.96731 13.9705 3.96109 15.8752H2.12507V9.87744C2.19867 9.90349 2.27617 9.91681 2.35424 9.91683C2.53657 9.91683 2.71144 9.8444 2.84037 9.71547C2.9693 9.58654 3.04174 9.41167 3.04174 9.22933C3.04174 9.047 2.9693 8.87213 2.84037 8.7432C2.71144 8.61426 2.53657 8.54183 2.35424 8.54183C2.27611 8.54214 2.19862 8.55576 2.12507 8.58211V1.43767C2.12639 1.34565 2.10923 1.2543 2.07459 1.16904C2.03996 1.08378 1.98856 1.00634 1.92345 0.941307C1.85833 0.876276 1.78082 0.824978 1.69552 0.790453C1.61021 0.755929 1.51884 0.73888 1.42683 0.740318ZM9.68757 0.750165C8.4134 0.750165 5.88319 1.57058 4.65486 7.62516H6.07551C6.92343 3.6835 8.37674 2.12517 9.68757 2.12517C10.9984 2.12517 12.4517 3.6835 13.2996 7.62516H14.7203C13.492 1.57058 10.9617 0.750165 9.68757 0.750165ZM4.6459 8.54183C4.46357 8.54183 4.2887 8.61426 4.15977 8.7432C4.03084 8.87213 3.9584 9.047 3.9584 9.22933C3.9584 9.41167 4.03084 9.58654 4.15977 9.71547C4.2887 9.8444 4.46357 9.91683 4.6459 9.91683C4.82824 9.91683 5.00311 9.8444 5.13204 9.71547C5.26097 9.58654 5.3334 9.41167 5.3334 9.22933C5.3334 9.047 5.26097 8.87213 5.13204 8.7432C5.00311 8.61426 4.82824 8.54183 4.6459 8.54183ZM6.93757 8.54183C6.75523 8.54183 6.58037 8.61426 6.45144 8.7432C6.3225 8.87213 6.25007 9.047 6.25007 9.22933C6.25007 9.41167 6.3225 9.58654 6.45144 9.71547C6.58037 9.8444 6.75523 9.91683 6.93757 9.91683C7.11991 9.91683 7.29478 9.8444 7.42371 9.71547C7.55264 9.58654 7.62507 9.41167 7.62507 9.22933C7.62507 9.047 7.55264 8.87213 7.42371 8.7432C7.29478 8.61426 7.11991 8.54183 6.93757 8.54183ZM9.22924 8.54183C9.0469 8.54183 8.87203 8.61426 8.7431 8.7432C8.61417 8.87213 8.54174 9.047 8.54174 9.22933C8.54174 9.41167 8.61417 9.58654 8.7431 9.71547C8.87203 9.8444 9.0469 9.91683 9.22924 9.91683C9.41157 9.91683 9.58644 9.8444 9.71537 9.71547C9.8443 9.58654 9.91674 9.41167 9.91674 9.22933C9.91674 9.047 9.8443 8.87213 9.71537 8.7432C9.58644 8.61426 9.41157 8.54183 9.22924 8.54183ZM11.5209 8.54183C11.3386 8.54183 11.1637 8.61426 11.0348 8.7432C10.9058 8.87213 10.8334 9.047 10.8334 9.22933C10.8334 9.41167 10.9058 9.58654 11.0348 9.71547C11.1637 9.8444 11.3386 9.91683 11.5209 9.91683C11.7032 9.91683 11.8781 9.8444 12.007 9.71547C12.136 9.58654 12.2084 9.41167 12.2084 9.22933C12.2084 9.047 12.136 8.87213 12.007 8.7432C11.8781 8.61426 11.7032 8.54183 11.5209 8.54183ZM13.8126 8.54183C13.6302 8.54183 13.4554 8.61426 13.3264 8.7432C13.1975 8.87213 13.1251 9.047 13.1251 9.22933C13.1251 9.41167 13.1975 9.58654 13.3264 9.71547C13.4554 9.8444 13.6302 9.91683 13.8126 9.91683C13.9949 9.91683 14.1698 9.8444 14.2987 9.71547C14.4276 9.58654 14.5001 9.41167 14.5001 9.22933C14.5001 9.047 14.4276 8.87213 14.2987 8.7432C14.1698 8.61426 13.9949 8.54183 13.8126 8.54183ZM16.1042 8.54183C15.9219 8.54183 15.747 8.61426 15.6181 8.7432C15.4892 8.87213 15.4167 9.047 15.4167 9.22933C15.4167 9.41167 15.4892 9.58654 15.6181 9.71547C15.747 9.8444 15.9219 9.91683 16.1042 9.91683C16.2866 9.91683 16.4614 9.8444 16.5904 9.71547C16.7193 9.58654 16.7917 9.41167 16.7917 9.22933C16.7917 9.047 16.7193 8.87213 16.5904 8.7432C16.4614 8.61426 16.2866 8.54183 16.1042 8.54183Z" fill="#25242C"/>
</svg>
