<svg width="30" height="30" viewBox="0 0 30 30" fill="none" xmlns="http://www.w3.org/2000/svg">
<path d="M14.9849 0.985474C14.72 0.989614 14.4674 1.09876 14.2829 1.28895C14.0983 1.47913 13.9968 1.7348 14.0006 1.9998V3.05058C8.18239 3.53414 3.53492 8.18162 3.05135 13.9998H2.00057C1.86806 13.9979 1.7365 14.0224 1.61353 14.0718C1.49056 14.1212 1.37864 14.1946 1.28427 14.2876C1.1899 14.3807 1.11496 14.4916 1.06382 14.6138C1.01267 14.7361 0.986328 14.8673 0.986328 14.9998C0.986328 15.1323 1.01267 15.2635 1.06382 15.3858C1.11496 15.508 1.1899 15.6189 1.28427 15.712C1.37864 15.805 1.49056 15.8784 1.61353 15.9278C1.7365 15.9772 1.86806 16.0017 2.00057 15.9998H3.05135C3.53492 21.818 8.18239 26.4655 14.0006 26.949V27.9998C13.9987 28.1323 14.0232 28.2639 14.0726 28.3868C14.122 28.5098 14.1954 28.6217 14.2884 28.7161C14.3815 28.8105 14.4923 28.8854 14.6146 28.9366C14.7368 28.9877 14.868 29.014 15.0006 29.014C15.1331 29.014 15.2643 28.9877 15.3866 28.9366C15.5088 28.8854 15.6197 28.8105 15.7127 28.7161C15.8058 28.6217 15.8791 28.5098 15.9285 28.3868C15.978 28.2639 16.0024 28.1323 16.0006 27.9998V26.949C18.5047 26.7409 20.7949 25.77 22.6282 24.2563C25.0544 22.2531 26.6743 19.3138 26.9498 15.9998H28.0006C28.034 16.0002 28.0675 15.9989 28.1008 15.9959C28.3581 15.9727 28.5964 15.8508 28.7659 15.6557C28.9353 15.4607 29.0227 15.2077 29.0097 14.9497C28.9968 14.6917 28.8845 14.4487 28.6963 14.2716C28.5082 14.0945 28.2589 13.9971 28.0006 13.9998H26.9498C26.9436 13.9253 26.9456 13.8486 26.9381 13.7745C26.5686 10.149 24.5783 6.9949 21.705 5.05188C20.05 3.93273 18.0998 3.22505 16.0006 3.05058V1.9998C16.0025 1.86595 15.9775 1.73309 15.9271 1.60907C15.8768 1.48505 15.802 1.37241 15.7073 1.27782C15.6126 1.18323 15.4998 1.10861 15.3758 1.0584C15.2517 1.00818 15.1188 0.983382 14.9849 0.985474ZM14.0006 5.05058V5.9998C13.9987 6.13231 14.0232 6.26387 14.0726 6.38684C14.122 6.50981 14.1954 6.62173 14.2884 6.7161C14.3815 6.81047 14.4923 6.8854 14.6146 6.93655C14.7368 6.9877 14.868 7.01404 15.0006 7.01404C15.1331 7.01404 15.2643 6.9877 15.3866 6.93655C15.5088 6.8854 15.6197 6.81047 15.7127 6.7161C15.8058 6.62173 15.8791 6.50981 15.9285 6.38684C15.978 6.26387 16.0024 6.13231 16.0006 5.9998V5.05058C17.6936 5.21765 19.2608 5.80257 20.5969 6.70422C22.1926 7.78101 23.4591 9.30725 24.2167 11.1027C24.5955 12.0004 24.8463 12.9649 24.9485 13.9751C24.9493 13.9832 24.949 13.9917 24.9498 13.9998H24.0006C23.8681 13.9979 23.7365 14.0224 23.6135 14.0718C23.4906 14.1212 23.3786 14.1946 23.2843 14.2876C23.1899 14.3807 23.115 14.4916 23.0638 14.6138C23.0127 14.7361 22.9863 14.8673 22.9863 14.9998C22.9863 15.1323 23.0127 15.2635 23.0638 15.3858C23.115 15.508 23.1899 15.6189 23.2843 15.712C23.3786 15.805 23.4906 15.8784 23.6135 15.9278C23.7365 15.9772 23.8681 16.0017 24.0006 15.9998H24.9498C24.8825 16.6819 24.7494 17.3433 24.5527 17.9777C23.9695 19.858 22.8473 21.4984 21.3665 22.7198C19.8856 23.9413 18.0457 24.7434 16.0253 24.9477C16.0172 24.9485 16.0087 24.9482 16.0006 24.949V23.9998C16.0025 23.866 15.9775 23.7331 15.9271 23.6091C15.8768 23.4851 15.802 23.3724 15.7073 23.2778C15.6126 23.1832 15.4998 23.1086 15.3758 23.0584C15.2517 23.0082 15.1188 22.9834 14.9849 22.9855C14.72 22.9896 14.4674 23.0988 14.2829 23.2889C14.0983 23.4791 13.9968 23.7348 14.0006 23.9998V24.949C13.6555 24.915 13.3161 24.8647 12.9823 24.7967C8.73786 23.9312 5.48445 20.3886 5.05135 15.9998H6.00057C6.03403 16.0002 6.0675 15.9989 6.10083 15.9959C6.35812 15.9727 6.59645 15.8508 6.76587 15.6557C6.9353 15.4607 7.02269 15.2077 7.00973 14.9497C6.99677 14.6917 6.88447 14.4487 6.69635 14.2716C6.50823 14.0945 6.2589 13.9971 6.00057 13.9998H5.05135C5.05215 13.9917 5.05183 13.9832 5.05265 13.9751C5.53026 9.25264 9.27477 5.51693 14.0006 5.05058ZM15.0006 11.6665C13.9728 11.6665 13.0753 12.0879 12.5032 12.7316C11.931 13.3752 11.6672 14.1942 11.6672 14.9998C11.6672 15.8054 11.931 16.6243 12.5032 17.268C13.0753 17.9117 13.9728 18.3331 15.0006 18.3331C16.0283 18.3331 16.9258 17.9117 17.498 17.268C18.0701 16.6243 18.3339 15.8054 18.3339 14.9998C18.3339 14.1942 18.0701 13.3752 17.498 12.7316C16.9258 12.0879 16.0283 11.6665 15.0006 11.6665ZM15.0006 13.6665C15.5283 13.6665 15.7976 13.8284 16.0032 14.0597C16.2088 14.291 16.3339 14.6387 16.3339 14.9998C16.3339 15.3609 16.2088 15.7086 16.0032 15.9399C15.7976 16.1712 15.5283 16.3331 15.0006 16.3331C14.4728 16.3331 14.2036 16.1712 13.998 15.9399C13.7923 15.7086 13.6672 15.3609 13.6672 14.9998C13.6672 14.9095 13.6744 14.8199 13.6894 14.7329C13.7342 14.4719 13.8438 14.2332 13.998 14.0597C14.2036 13.8284 14.4728 13.6665 15.0006 13.6665Z" fill="#25242C"/>
</svg>
