<svg width="22" height="28" viewBox="0 0 22 28" fill="none" xmlns="http://www.w3.org/2000/svg">
<path d="M11.0007 1.22919e-08C10.766 -3.67677e-05 10.5387 0.0824675 10.3587 0.233073C10.3587 0.233073 7.87365 2.31036 5.39128 5.36068C2.90891 8.411 0.333984 12.4531 0.333984 16.6667C0.333984 22.3625 4.83126 27.0203 10.4577 27.306C10.6364 27.3243 10.8173 27.3333 11.0007 27.3333C11.184 27.3333 11.3649 27.3243 11.5436 27.306C17.17 27.0203 21.6673 22.3625 21.6673 16.6667C21.6673 12.162 18.7345 7.8521 16.097 4.74479C15.9645 4.58852 15.7873 4.47669 15.5892 4.42443C15.3911 4.37217 15.1818 4.382 14.9895 4.45259C14.7972 4.52318 14.6312 4.65112 14.5139 4.81912C14.3967 4.98712 14.3339 5.18707 14.334 5.39193V8.33333C14.334 8.89767 13.8983 9.33333 13.334 9.33333C12.7697 9.33333 12.334 8.89767 12.334 8.33333V1.29036C12.334 1.14881 12.3039 1.00887 12.2457 0.879808C12.1876 0.750742 12.1027 0.635488 11.9967 0.541667C11.7798 0.349488 11.6452 0.235677 11.6452 0.235677C11.4649 0.0835569 11.2366 7.99671e-05 11.0007 1.22919e-08ZM10.334 2.96484V8.33333C10.334 9.97833 11.689 11.3333 13.334 11.3333C14.979 11.3333 16.334 9.97833 16.334 8.33333V8.32031C18.1594 10.9101 19.6673 13.9258 19.6673 16.6667C19.6673 19.5779 18.238 22.1406 16.0462 23.7109C16.23 23.1729 16.334 22.5983 16.334 22C16.334 19.7727 15.1138 17.7342 13.9707 16.1953C12.8276 14.6565 11.679 13.599 11.679 13.599C11.5808 13.5081 11.4652 13.4379 11.3393 13.3925C11.2134 13.3471 11.0796 13.3274 10.946 13.3346C10.7136 13.3475 10.4931 13.441 10.3223 13.599C10.3223 13.599 9.17374 14.6565 8.0306 16.1953C6.88746 17.7342 5.66732 19.7727 5.66732 22C5.66732 22.5983 5.7713 23.1729 5.95508 23.7109C3.76335 22.1406 2.33398 19.5779 2.33398 16.6667C2.33398 13.3036 4.5924 9.51255 6.94336 6.6237C8.24721 5.02154 9.43184 3.82178 10.334 2.96484ZM11.0007 15.8385C11.3779 16.2192 11.6805 16.468 12.3639 17.388C13.3875 18.7658 14.334 20.5606 14.334 22C14.334 23.7367 13.0332 25.1464 11.3444 25.3164C11.2314 25.3278 11.1169 25.3333 11.0007 25.3333C10.8848 25.3333 10.7708 25.3277 10.6582 25.3164C10.6578 25.3164 10.6573 25.3164 10.6569 25.3164C8.96811 25.1464 7.66732 23.7367 7.66732 22C7.66732 20.5606 8.61385 18.7658 9.63737 17.388C10.3208 16.468 10.6234 16.2192 11.0007 15.8385Z" fill="#25242C"/>
</svg>
