<svg width="28" height="26" viewBox="0 0 28 26" fill="none" xmlns="http://www.w3.org/2000/svg">
<path d="M13.9999 0.333008C12.169 0.333008 10.6627 1.83929 10.6627 3.67025V23.6624H8.6731C8.67342 21.6643 8.677 10.7269 8.677 9.67025C8.677 7.83929 7.17072 6.33301 5.33976 6.33301C3.50881 6.33301 2.00383 7.83929 2.00383 9.67025C2.00383 10.7238 2.00024 21.6614 1.99992 23.6624H1.66659C1.53407 23.6606 1.40251 23.685 1.27954 23.7345C1.15658 23.7839 1.04465 23.8572 0.950284 23.9503C0.855915 24.0433 0.780978 24.1542 0.729831 24.2764C0.678683 24.3987 0.652344 24.5299 0.652344 24.6624C0.652344 24.795 0.678683 24.9262 0.729831 25.0484C0.780978 25.1707 0.855915 25.2816 0.950284 25.3746C1.04465 25.4676 1.15658 25.541 1.27954 25.5904C1.40251 25.6398 1.53407 25.6643 1.66659 25.6624H26.3333C26.4658 25.6643 26.5973 25.6398 26.7203 25.5904C26.8433 25.541 26.9552 25.4676 27.0496 25.3746C27.1439 25.2816 27.2189 25.1707 27.27 25.0484C27.3212 24.9262 27.3475 24.795 27.3475 24.6624C27.3475 24.5299 27.3212 24.3987 27.27 24.2764C27.2189 24.1542 27.1439 24.0433 27.0496 23.9503C26.9552 23.8572 26.8433 23.7839 26.7203 23.7345C26.5973 23.685 26.4658 23.6606 26.3333 23.6624H25.9999V14.9997C25.9999 13.1687 24.4936 11.6624 22.6627 11.6624C20.8317 11.6624 19.3267 13.1687 19.3267 14.9997V23.6624H17.3372V3.67025C17.3372 1.83929 15.8309 0.333008 13.9999 0.333008ZM13.9999 2.33301C14.7503 2.33301 15.3372 2.91987 15.3372 3.67025V23.6624H12.6627V3.67025C12.6627 2.91987 13.2495 2.33301 13.9999 2.33301ZM5.33976 8.33301C6.09014 8.33301 6.677 8.91987 6.677 9.67025C6.677 10.7231 6.67342 21.6608 6.6731 23.6624H3.99992C4.00025 21.6649 4.00383 10.7276 4.00383 9.67025C4.00383 8.91987 4.58939 8.33301 5.33976 8.33301ZM22.6627 13.6624C23.4131 13.6624 23.9999 14.2493 23.9999 14.9997V23.6624H21.3267V14.9997C21.3267 14.2493 21.9123 13.6624 22.6627 13.6624Z" fill="#25242C"/>
</svg>
