<svg width="20" height="18" viewBox="0 0 20 18" fill="none" xmlns="http://www.w3.org/2000/svg">
<path d="M10.0007 0.291992C8.7419 0.291992 7.70633 1.32756 7.70633 2.58634V16.331H6.33849C6.33871 14.9573 6.34117 7.43783 6.34117 6.71134C6.34117 5.45256 5.3056 4.41699 4.04682 4.41699C2.78804 4.41699 1.75336 5.45256 1.75336 6.71134C1.75336 7.43563 1.7509 14.9553 1.75068 16.331H1.52151C1.43041 16.3297 1.33996 16.3465 1.25542 16.3805C1.17088 16.4145 1.09393 16.4649 1.02905 16.5289C0.964174 16.5928 0.912655 16.6691 0.877491 16.7531C0.842327 16.8372 0.824219 16.9274 0.824219 17.0185C0.824219 17.1096 0.842327 17.1998 0.877491 17.2838C0.912655 17.3679 0.964174 17.4441 1.02905 17.5081C1.09393 17.5721 1.17088 17.6225 1.25542 17.6565C1.33996 17.6904 1.43041 17.7073 1.52151 17.706H18.4798C18.5709 17.7073 18.6614 17.6904 18.7459 17.6565C18.8305 17.6225 18.9074 17.5721 18.9723 17.5081C19.0372 17.4441 19.0887 17.3679 19.1239 17.2838C19.159 17.1998 19.1771 17.1096 19.1771 17.0185C19.1771 16.9274 19.159 16.8372 19.1239 16.7531C19.0887 16.6691 19.0372 16.5928 18.9723 16.5289C18.9074 16.4649 18.8305 16.4145 18.7459 16.3805C18.6614 16.3465 18.5709 16.3297 18.4798 16.331H18.2507V10.3753C18.2507 9.11654 17.2151 8.08097 15.9563 8.08097C14.6975 8.08097 13.6629 9.11654 13.6629 10.3753V16.331H12.295V2.58634C12.295 1.32756 11.2595 0.291992 10.0007 0.291992ZM10.0007 1.66699C10.5166 1.66699 10.92 2.07046 10.92 2.58634V16.331H9.08133V2.58634C9.08133 2.07046 9.48479 1.66699 10.0007 1.66699ZM4.04682 5.79199C4.5627 5.79199 4.96617 6.19546 4.96617 6.71134C4.96617 7.43519 4.96371 14.9549 4.96349 16.331H3.12568C3.1259 14.9577 3.12836 7.43826 3.12836 6.71134C3.12836 6.19546 3.53094 5.79199 4.04682 5.79199ZM15.9563 9.45597C16.4722 9.45597 16.8757 9.85944 16.8757 10.3753V16.331H15.0379V10.3753C15.0379 9.85944 15.4404 9.45597 15.9563 9.45597Z" fill="#25242C"/>
</svg>
