<svg width="30" height="30" viewBox="0 0 30 30" fill="none" xmlns="http://www.w3.org/2000/svg">
<path d="M20.9453 0.666545C20.7318 0.659597 20.5217 0.721205 20.3457 0.842344C20.1697 0.963483 20.0372 1.13779 19.9674 1.33972L18.6042 5.28894C16.9075 4.47206 15.0097 3.99988 13 3.99988C5.83221 3.99988 0 9.83209 0 16.9999C0 24.1677 5.83221 29.9999 13 29.9999C20.1678 29.9999 26 24.1677 26 16.9999C26 14.9908 25.5287 13.0933 24.7122 11.397L28.6602 10.0337C28.7843 9.99083 28.8988 9.92388 28.9971 9.83673C29.0953 9.74957 29.1755 9.64391 29.2329 9.52578C29.2903 9.40765 29.3239 9.27936 29.3318 9.14824C29.3396 9.01712 29.3216 8.88574 29.2786 8.7616C27.9788 4.99421 25.005 2.02113 21.2383 0.721232C21.1439 0.688473 21.0452 0.670039 20.9453 0.666545ZM21.4948 3.04675C23.9234 4.14652 25.8535 6.07724 26.9531 8.50639L18.6159 11.384L21.4948 3.04675ZM12 6.05066V15.9999H2.05078C2.5253 10.7146 6.7147 6.52518 12 6.05066ZM14 6.05196C15.4105 6.18134 16.7403 6.57623 17.9479 7.18998L16.0547 12.6731C15.9933 12.8504 15.9831 13.0414 16.0252 13.2243C16.0673 13.4072 16.1599 13.5745 16.2926 13.7072C16.4253 13.8399 16.5927 13.9326 16.7756 13.9747C16.9584 14.0168 17.1495 14.0066 17.3268 13.9452L22.8099 12.0533C23.5668 13.5429 24 15.2158 24 16.9999C24 19.6825 23.0442 22.135 21.4557 24.0415L14 16.5858V6.05196ZM2.05078 17.9999H12.5859L20.0417 25.4556C18.1351 27.0441 15.6826 27.9999 13 27.9999C7.25089 27.9999 2.55492 23.6151 2.05078 17.9999Z" fill="#25242C"/>
</svg>
