<svg width="21" height="21" viewBox="0 0 21 21" fill="none" xmlns="http://www.w3.org/2000/svg">
<path d="M14.7749 0.458372C14.6281 0.453595 14.4836 0.49595 14.3627 0.579233C14.2417 0.662516 14.1506 0.78235 14.1026 0.921181L13.1654 3.63627C11.9989 3.07467 10.6942 2.75004 9.3125 2.75004C4.38465 2.75004 0.375 6.75968 0.375 11.6875C0.375 16.6154 4.38465 20.625 9.3125 20.625C14.2404 20.625 18.25 16.6154 18.25 11.6875C18.25 10.3063 17.9259 9.00177 17.3647 7.83557L20.0789 6.89831C20.1642 6.86881 20.2429 6.82279 20.3105 6.76287C20.378 6.70295 20.4331 6.63031 20.4726 6.54909C20.5121 6.46788 20.5352 6.37968 20.5406 6.28954C20.546 6.19939 20.5336 6.10907 20.5041 6.02372C19.6104 3.43364 17.5659 1.38965 14.9763 0.495969C14.9114 0.473447 14.8435 0.460774 14.7749 0.458372ZM15.1527 2.09476C16.8224 2.85085 18.1493 4.17822 18.9053 5.84826L13.1734 7.82662L15.1527 2.09476ZM8.625 4.15995V11H1.78491C2.11114 7.3664 4.99136 4.48618 8.625 4.15995ZM10 4.16085C10.9697 4.24979 11.8839 4.52128 12.7142 4.94323L11.4126 8.71285C11.3704 8.83477 11.3634 8.96611 11.3923 9.09184C11.4212 9.21757 11.485 9.33262 11.5762 9.42385C11.6674 9.51508 11.7825 9.5788 11.9082 9.60773C12.0339 9.63666 12.1653 9.62963 12.2872 9.58744L16.0568 8.28674C16.5771 9.31086 16.875 10.461 16.875 11.6875C16.875 13.5318 16.2179 15.2179 15.1258 16.5287L10 11.4029V4.16085ZM1.78491 12.375H9.02783L14.1536 17.5009C12.8429 18.5929 11.1568 19.25 9.3125 19.25C5.35999 19.25 2.13151 16.2355 1.78491 12.375Z" fill="#25242C"/>
</svg>
