<svg width="25" height="25" viewBox="0 0 25 25" fill="none" xmlns="http://www.w3.org/2000/svg">
<path d="M0.984478 0.985474C0.719489 0.989613 0.466977 1.09876 0.282407 1.28895C0.0978371 1.47913 -0.00369833 1.7348 0.000103017 1.9998V23.9998C0.000129534 24.265 0.105495 24.5193 0.293026 24.7069C0.480556 24.8944 0.734895 24.9998 1.0001 24.9998H23.0001C23.1326 25.0017 23.2642 24.9772 23.3871 24.9278C23.5101 24.8784 23.622 24.805 23.7164 24.712C23.8108 24.6189 23.8857 24.508 23.9369 24.3858C23.988 24.2635 24.0143 24.1323 24.0143 23.9998C24.0143 23.8673 23.988 23.7361 23.9369 23.6138C23.8857 23.4916 23.8108 23.3807 23.7164 23.2876C23.622 23.1946 23.5101 23.1212 23.3871 23.0718C23.2642 23.0224 23.1326 22.9979 23.0001 22.9998H21.3295C21.3205 20.2294 21.2049 17.7926 20.9936 15.6665H18.9806C19.1983 17.7925 19.32 20.235 19.3295 22.9998H6.67068C6.68023 20.235 6.80191 17.7925 7.01963 15.6665H5.00661C4.79528 17.7926 4.67973 20.2294 4.67068 22.9998H2.0001V14.2758C2.10716 14.3137 2.21988 14.3331 2.33344 14.3331C2.59865 14.3331 2.85301 14.2278 3.04054 14.0402C3.22808 13.8527 3.33344 13.5983 3.33344 13.3331C3.33344 13.0679 3.22808 12.8136 3.04054 12.626C2.85301 12.4385 2.59865 12.3331 2.33344 12.3331C2.2198 12.3336 2.10708 12.3534 2.0001 12.3917V1.9998C2.00202 1.86595 1.97705 1.73309 1.92668 1.60907C1.8763 1.48505 1.80154 1.37241 1.70683 1.27782C1.61212 1.18323 1.49938 1.10861 1.3753 1.0584C1.25122 1.00818 1.11832 0.983382 0.984478 0.985474ZM13.0001 0.999797C11.1468 0.999797 7.46646 2.19313 5.67979 10.9998H7.7462C8.97953 5.26646 11.0934 2.9998 13.0001 2.9998C14.9068 2.9998 17.0207 5.26646 18.254 10.9998H20.3204C18.5337 2.19313 14.8534 0.999797 13.0001 0.999797ZM5.66677 12.3331C5.40155 12.3331 5.1472 12.4385 4.95966 12.626C4.77213 12.8136 4.66677 13.0679 4.66677 13.3331C4.66677 13.5983 4.77213 13.8527 4.95966 14.0402C5.1472 14.2278 5.40155 14.3331 5.66677 14.3331C5.93199 14.3331 6.18634 14.2278 6.37388 14.0402C6.56141 13.8527 6.66677 13.5983 6.66677 13.3331C6.66677 13.0679 6.56141 12.8136 6.37388 12.626C6.18634 12.4385 5.93199 12.3331 5.66677 12.3331ZM9.0001 12.3331C8.73489 12.3331 8.48053 12.4385 8.293 12.626C8.10546 12.8136 8.0001 13.0679 8.0001 13.3331C8.0001 13.5983 8.10546 13.8527 8.293 14.0402C8.48053 14.2278 8.73489 14.3331 9.0001 14.3331C9.26532 14.3331 9.51967 14.2278 9.70721 14.0402C9.89474 13.8527 10.0001 13.5983 10.0001 13.3331C10.0001 13.0679 9.89474 12.8136 9.70721 12.626C9.51967 12.4385 9.26532 12.3331 9.0001 12.3331ZM12.3334 12.3331C12.0682 12.3331 11.8139 12.4385 11.6263 12.626C11.4388 12.8136 11.3334 13.0679 11.3334 13.3331C11.3334 13.5983 11.4388 13.8527 11.6263 14.0402C11.8139 14.2278 12.0682 14.3331 12.3334 14.3331C12.5987 14.3331 12.853 14.2278 13.0405 14.0402C13.2281 13.8527 13.3334 13.5983 13.3334 13.3331C13.3334 13.0679 13.2281 12.8136 13.0405 12.626C12.853 12.4385 12.5987 12.3331 12.3334 12.3331ZM15.6668 12.3331C15.4016 12.3331 15.1472 12.4385 14.9597 12.626C14.7721 12.8136 14.6668 13.0679 14.6668 13.3331C14.6668 13.5983 14.7721 13.8527 14.9597 14.0402C15.1472 14.2278 15.4016 14.3331 15.6668 14.3331C15.932 14.3331 16.1863 14.2278 16.3739 14.0402C16.5614 13.8527 16.6668 13.5983 16.6668 13.3331C16.6668 13.0679 16.5614 12.8136 16.3739 12.626C16.1863 12.4385 15.932 12.3331 15.6668 12.3331ZM19.0001 12.3331C18.7349 12.3331 18.4805 12.4385 18.293 12.626C18.1055 12.8136 18.0001 13.0679 18.0001 13.3331C18.0001 13.5983 18.1055 13.8527 18.293 14.0402C18.4805 14.2278 18.7349 14.3331 19.0001 14.3331C19.2653 14.3331 19.5197 14.2278 19.7072 14.0402C19.8947 13.8527 20.0001 13.5983 20.0001 13.3331C20.0001 13.0679 19.8947 12.8136 19.7072 12.626C19.5197 12.4385 19.2653 12.3331 19.0001 12.3331ZM22.3334 12.3331C22.0682 12.3331 21.8139 12.4385 21.6263 12.626C21.4388 12.8136 21.3334 13.0679 21.3334 13.3331C21.3334 13.5983 21.4388 13.8527 21.6263 14.0402C21.8139 14.2278 22.0682 14.3331 22.3334 14.3331C22.5987 14.3331 22.853 14.2278 23.0405 14.0402C23.2281 13.8527 23.3334 13.5983 23.3334 13.3331C23.3334 13.0679 23.2281 12.8136 23.0405 12.626C22.853 12.4385 22.5987 12.3331 22.3334 12.3331Z" fill="#25242C"/>
</svg>
