<svg width="180" height="180" viewBox="0 0 180 180" fill="none" xmlns="http://www.w3.org/2000/svg">
<path d="M90.1864 0L110.462 62.3593L176.076 62.3593L122.993 100.899L143.269 163.259L90.1864 124.719L37.104 163.259L57.3797 100.899L4.29727 62.3593H69.9107L90.1864 0Z" fill="#076AFF"/>
<path d="M66.8117 3.07509L102.547 58.0654L165.925 41.095L124.633 92.0513L160.369 147.042L99.1134 123.544L57.8215 174.5L61.2554 109.022L0 85.524L63.3777 68.5536L66.8117 3.07509Z" fill="#076AFF"/>
<path d="M45.0309 12.0908L93.7912 55.9647L150.614 23.1805L123.927 83.0802L172.687 126.954L107.433 120.1L80.7457 180L67.1038 115.864L1.84982 109.011L58.6727 76.2264L45.0309 12.0908Z" fill="#076AFF"/>
<path d="M26.3277 26.4328L84.7897 56.2002L131.185 9.83636L120.921 74.5975L179.383 104.365L114.578 114.622L104.313 179.383L74.5255 120.961L9.71987 131.219L56.1156 84.8547L26.3277 26.4328Z" fill="#076AFF"/>
<path d="M11.9755 45.1236L76.1551 58.756L108.962 1.97212L115.82 67.1813L180 80.8138L120.059 107.483L126.918 172.692L83.0136 123.965L23.0727 150.634L55.8795 93.8504L11.9755 45.1236Z" fill="#076AFF"/>
</svg>
