<svg width="99" height="99" viewBox="0 0 99 99" fill="none" xmlns="http://www.w3.org/2000/svg">
<path d="M49.6025 0L60.7542 34.2976H96.8416L67.6462 55.4947L78.7979 89.7923L49.6025 68.5952L20.4072 89.7923L31.5588 55.4947L2.3635 34.2976H38.4509L49.6025 0Z" fill="#076AFF"/>
<path d="M36.7464 1.6913L56.401 31.936L91.2588 22.6023L68.5483 50.6282L88.2029 80.8729L54.5124 67.9492L31.8018 95.9751L33.6905 59.9619L0 47.0382L34.8578 37.7045L36.7464 1.6913Z" fill="#076AFF"/>
<path d="M24.767 6.64996L51.5852 30.7806L82.8378 12.7493L68.1597 45.6941L94.9779 69.8247L59.0882 66.0551L44.4101 99L36.9071 63.7254L1.0174 59.9559L32.27 41.9245L24.767 6.64996Z" fill="#076AFF"/>
<path d="M14.4802 14.538L46.6344 30.9101L72.152 5.41L66.5067 41.0286L98.6608 57.4007L63.0177 63.0422L57.3724 98.6608L40.989 66.5288L5.34593 72.1702L30.8636 46.6701L14.4802 14.538Z" fill="#076AFF"/>
<path d="M6.58652 24.818L41.8853 32.3158L59.929 1.08467L63.7012 36.9497L99 44.4476L66.0325 59.1156L69.8047 94.9807L45.6575 68.1809L12.69 82.8489L30.7337 51.6177L6.58652 24.818Z" fill="#076AFF"/>
</svg>
