<svg width="71" height="71" viewBox="0 0 71 71" fill="none" xmlns="http://www.w3.org/2000/svg">
<path d="M35.1001 0.462423C35.2498 0.0018959 35.9014 0.00189722 36.0511 0.462425L43.6862 23.9448C43.7532 24.1507 43.9451 24.2901 44.1617 24.2901L68.8687 24.2901C69.3532 24.2901 69.5545 24.9101 69.1625 25.1948L49.1747 39.7068C48.9993 39.8341 48.9259 40.0599 48.993 40.266L56.6278 63.7474C56.7775 64.208 56.2504 64.5911 55.8585 64.3066L35.8694 49.7936C35.6942 49.6664 35.457 49.6664 35.2818 49.7936L15.2927 64.3066C14.9008 64.5911 14.3737 64.208 14.5235 63.7474L22.1583 40.266C22.2253 40.0599 22.1519 39.8341 21.9765 39.7068L1.98872 25.1948C1.5967 24.9101 1.79804 24.2901 2.28248 24.2901H26.9895C27.2061 24.2901 27.398 24.1507 27.465 23.9448L35.1001 0.462423Z" fill="#076AFF"/>
<path d="M26.0153 1.78294C26.0407 1.29933 26.67 1.13061 26.9339 1.53667L40.3908 22.2443C40.5088 22.4258 40.7302 22.5108 40.9394 22.4548L64.8049 16.0645C65.2729 15.9392 65.6277 16.4859 65.3227 16.8622L49.7746 36.0495C49.6381 36.2179 49.6257 36.455 49.7438 36.6367L63.1998 57.343C63.4638 57.7492 63.0538 58.2558 62.6015 58.0823L39.535 49.234C39.3328 49.1564 39.1037 49.2178 38.9674 49.386L23.4182 68.5746C23.1133 68.9508 22.505 68.7172 22.5304 68.2336L23.8235 43.5772C23.8348 43.3608 23.7055 43.1618 23.5032 43.0842L0.437741 34.2363C-0.0145853 34.0627 0.0195132 33.4117 0.487491 33.2864L24.3522 26.8963C24.5615 26.8403 24.7109 26.6558 24.7222 26.4395L26.0153 1.78294Z" fill="#076AFF"/>
<path d="M17.5826 5.40816C17.4818 4.93445 18.0461 4.6085 18.4061 4.93245L36.7677 21.454C36.9286 21.5988 37.1645 21.6236 37.352 21.5154L58.7496 9.16993C59.1691 8.92788 59.6533 9.36408 59.4562 9.80651L49.4071 32.3616C49.3189 32.5596 49.3683 32.7918 49.5294 32.9368L67.8898 49.4571C68.2499 49.7812 67.9849 50.3767 67.5031 50.3261L42.9312 47.7453C42.7159 47.7226 42.5104 47.8412 42.4223 48.039L32.3727 70.5953C32.1756 71.0377 31.5277 70.9695 31.4269 70.4958L26.2899 46.3447C26.2448 46.1329 26.0685 45.9741 25.8531 45.9515L1.28159 43.3707C0.799784 43.3201 0.664322 42.6825 1.08395 42.4404L22.4803 30.0957C22.668 29.9874 22.7645 29.7705 22.7194 29.5586L17.5826 5.40816Z" fill="#076AFF"/>
<path d="M10.3763 11.0909C10.1563 10.6594 10.617 10.1984 11.0487 10.4182L33.0634 21.6276C33.2564 21.7258 33.4906 21.6887 33.6437 21.5357L51.1149 4.0765C51.4575 3.73417 52.038 4.03012 51.9622 4.50845L48.0972 28.8945C48.0633 29.1085 48.171 29.32 48.3641 29.4183L70.3777 40.6271C70.8094 40.8469 70.7075 41.4908 70.229 41.5665L45.8264 45.4288C45.6124 45.4627 45.4446 45.6305 45.4107 45.8444L41.5456 70.231C41.4698 70.7093 40.8263 70.8113 40.6063 70.3799L29.3892 48.3801C29.2908 48.1872 29.0795 48.0795 28.8656 48.1133L4.46248 51.9757C3.98402 52.0515 3.68823 51.4706 4.03089 51.1282L21.5009 33.6702C21.6542 33.517 21.6913 33.2825 21.5929 33.0894L10.3763 11.0909Z" fill="#076AFF"/>
<path d="M4.88715 18.4438C4.5629 18.0839 4.88866 17.5193 5.3625 17.62L29.53 22.7534C29.7418 22.7984 29.9585 22.7019 30.0668 22.5144L42.4208 1.13142C42.663 0.7121 43.3003 0.847633 43.351 1.32924L45.9336 25.8845C45.9562 26.0999 46.1151 26.2762 46.327 26.3213L70.4937 31.4545C70.9676 31.5552 71.0357 32.2035 70.5931 32.4004L48.0227 42.4426C47.8247 42.5306 47.706 42.7362 47.7286 42.9517L50.3112 67.5065C50.3619 67.9882 49.7667 68.2533 49.4425 67.8935L32.9096 49.5445C32.7647 49.3837 32.5327 49.3344 32.3349 49.4224L9.76334 59.465C9.32079 59.6619 8.88483 59.1775 9.12714 58.7581L21.4804 37.3763C21.5888 37.1887 21.564 36.9525 21.4189 36.7915L4.88715 18.4438Z" fill="#076AFF"/>
</svg>
