<svg width="100" height="100" viewBox="0 0 100 100" fill="none" xmlns="http://www.w3.org/2000/svg">
<path d="M49.6281 1.46242C49.7778 1.0019 50.4293 1.0019 50.5791 1.46242L61.2555 34.2986C61.3225 34.5046 61.5145 34.644 61.731 34.644H96.2801C96.7645 34.644 96.9658 35.264 96.5738 35.5486L68.6237 55.8417C68.4483 55.969 68.3749 56.1948 68.4419 56.4009L79.1181 89.2362C79.2678 89.6968 78.7407 90.0799 78.3488 89.7954L50.3973 69.5014C50.2221 69.3742 49.985 69.3742 49.8098 69.5014L21.8583 89.7954C21.4664 90.0799 20.9393 89.6968 21.0891 89.2362L31.7652 56.4009C31.8322 56.1948 31.7588 55.969 31.5835 55.8417L3.63331 35.5486C3.24129 35.264 3.44263 34.644 3.92707 34.644H38.4761C38.6927 34.644 38.8846 34.5046 38.9516 34.2986L49.6281 1.46242Z" fill="#06E19F"/>
<path d="M37.0371 3.2442C37.0624 2.76059 37.6917 2.59187 37.9556 2.99793L56.7729 31.9541C56.8909 32.1357 57.1123 32.2206 57.3215 32.1646L90.6937 23.2287C91.1616 23.1034 91.5165 23.6501 91.2115 24.0265L69.4695 50.8572C69.3331 51.0256 69.3207 51.2627 69.4388 51.4444L88.2552 80.3993C88.5191 80.8054 88.1091 81.312 87.6568 81.1385L55.402 68.7656C55.1998 68.688 54.9707 68.7494 54.8344 68.9176L33.0914 95.7496C32.7865 96.1258 32.1782 95.8922 32.2036 95.4086L34.0118 60.9304C34.0231 60.7141 33.8938 60.515 33.6915 60.4374L1.43774 48.0649C0.985416 47.8913 1.01951 47.2403 1.48749 47.115L34.8589 38.1793C35.0682 38.1233 35.2175 37.9389 35.2289 37.7225L37.0371 3.2442Z" fill="#06E19F"/>
<path d="M25.3372 8.22179C25.2365 7.74807 25.8007 7.42213 26.1607 7.74607L51.8364 30.8487C51.9973 30.9935 52.2332 31.0183 52.4207 30.9101L82.3417 13.647C82.7613 13.405 83.2454 13.8411 83.0483 14.2836L68.9961 45.8236C68.9079 46.0216 68.9573 46.2538 69.1184 46.3988L94.7928 69.5002C95.1529 69.8243 94.8879 70.4198 94.4062 70.3692L60.0462 66.7603C59.8308 66.7377 59.6254 66.8563 59.5372 67.0541L45.4845 98.5953C45.2875 99.0376 44.6395 98.9695 44.5388 98.4958L37.3555 64.7244C37.3104 64.5125 37.1341 64.3538 36.9187 64.3312L2.55906 60.7223C2.07725 60.6717 1.9418 60.0341 2.36142 59.792L32.2812 42.5296C32.4689 42.4213 32.5654 42.2045 32.5204 41.9925L25.3372 8.22179Z" fill="#06E19F"/>
<path d="M15.3255 16.0558C15.1055 15.6243 15.5662 15.1633 15.9978 15.3831L46.7819 31.0576C46.9748 31.1559 47.2091 31.1188 47.3622 30.9657L71.7928 6.55195C72.1353 6.20962 72.7158 6.50557 72.64 6.9839L67.2354 41.0841C67.2014 41.2981 67.3092 41.5096 67.5023 41.608L98.2852 57.2818C98.7169 57.5017 98.615 58.1455 98.1365 58.2213L64.013 63.6222C63.7991 63.656 63.6313 63.8238 63.5974 64.0377L58.1926 98.1385C58.1168 98.6168 57.4733 98.7188 57.2534 98.2874L41.568 67.5243C41.4697 67.3314 41.2583 67.2237 41.0444 67.2575L6.92046 72.6585C6.442 72.7343 6.14621 72.1534 6.48887 71.811L30.9182 47.3984C31.0715 47.2452 31.1087 47.0107 31.0102 46.8176L15.3255 16.0558Z" fill="#06E19F"/>
<path d="M7.68348 26.2123C7.35922 25.8524 7.68498 25.2879 8.15882 25.3885L41.9532 32.5668C42.165 32.6118 42.3817 32.5153 42.4901 32.3278L59.765 2.42723C60.0073 2.00792 60.6446 2.14345 60.6952 2.62506L64.3066 36.9617C64.3293 37.1771 64.4881 37.3534 64.7 37.3985L98.4937 44.5766C98.9676 44.6773 99.0357 45.3256 98.5931 45.5225L67.0315 59.565C66.8336 59.6531 66.7149 59.8586 66.7375 60.0741L70.3489 94.4104C70.3995 94.892 69.8044 95.1571 69.4802 94.7974L46.3617 69.1393C46.2168 68.9785 45.9848 68.9292 45.787 69.0172L14.2242 83.0602C13.7817 83.2571 13.3457 82.7726 13.5881 82.3532L30.8623 52.4539C30.9707 52.2662 30.9459 52.0301 30.8008 51.8691L7.68348 26.2123Z" fill="#06E19F"/>
<path fill-rule="evenodd" clip-rule="evenodd" d="M46.6377 52.4574L58.5103 38.333L63.8863 42.6706L47.4519 62.2219L36.6641 52.9739L41.2502 47.8389L46.6377 52.4574Z" fill="white"/>
</svg>
