<svg width="70" height="70" viewBox="0 0 70 70" fill="none" xmlns="http://www.w3.org/2000/svg">
<path d="M34.597 1.46242C34.7467 1.0019 35.3983 1.0019 35.548 1.46242L42.8452 23.9054C42.9121 24.1114 43.1041 24.2508 43.3207 24.2508L66.9341 24.2508C67.4186 24.2508 67.6199 24.8708 67.2279 25.1554L48.1248 39.0251C47.9494 39.1524 47.8761 39.3782 47.9431 39.5843L55.2399 62.0264C55.3897 62.487 54.8626 62.8701 54.4707 62.5856L35.3663 48.7149C35.1911 48.5877 34.9539 48.5877 34.7787 48.7149L15.6743 62.5856C15.2824 62.8701 14.7553 62.487 14.9051 62.0264L22.2019 39.5843C22.2689 39.3782 22.1956 39.1524 22.0202 39.0251L2.9171 25.1554C2.52508 24.8708 2.72641 24.2508 3.21086 24.2508H26.8243C27.0409 24.2508 27.2328 24.1114 27.2998 23.9054L34.597 1.46242Z" fill="#06E19F"/>
<path d="M25.9018 2.73168C25.9271 2.24807 26.5565 2.07936 26.8203 2.48542L39.6817 22.2765C39.7997 22.4581 40.0211 22.5431 40.2303 22.4871L63.0395 16.3795C63.5075 16.2542 63.8623 16.801 63.5573 17.1773L48.6973 35.5153C48.5609 35.6837 48.5485 35.9208 48.6665 36.1025L61.527 55.8923C61.791 56.2985 61.381 56.8051 60.9287 56.6316L38.8831 48.1749C38.6809 48.0974 38.4518 48.1587 38.3155 48.3269L23.4545 66.6662C23.1496 67.0425 22.5413 66.8089 22.5667 66.3252L23.8025 42.7602C23.8139 42.5438 23.6846 42.3448 23.4823 42.2672L1.43774 33.8109C0.985413 33.6373 1.01951 32.9863 1.48749 32.861L24.2959 26.7537C24.5052 26.6977 24.6546 26.5133 24.6659 26.2969L25.9018 2.73168Z" fill="#06E19F"/>
<path d="M17.8321 6.20664C17.7313 5.73293 18.2955 5.40699 18.6556 5.73093L36.2045 21.5212C36.3654 21.666 36.6013 21.6908 36.7888 21.5826L57.2394 9.78359C57.6589 9.54154 58.1431 9.97774 57.946 10.4202L48.3417 31.9769C48.2535 32.1749 48.3029 32.4071 48.464 32.5521L66.0116 48.3412C66.3717 48.6653 66.1067 49.2608 65.625 49.2102L42.1407 46.7436C41.9253 46.721 41.7199 46.8396 41.6317 47.0374L32.0269 68.5953C31.8299 69.0376 31.1819 68.9695 31.0812 68.4958L26.1715 45.4137C26.1264 45.2018 25.9501 45.0431 25.7347 45.0204L2.25076 42.5539C1.76895 42.5033 1.63349 41.8656 2.05311 41.6235L22.5024 29.8252C22.6901 29.7169 22.7866 29.5001 22.7416 29.2881L17.8321 6.20664Z" fill="#06E19F"/>
<path d="M10.9376 11.6503C10.7175 11.2188 11.1782 10.7579 11.6099 10.9777L32.6503 21.6909C32.8432 21.7892 33.0774 21.7521 33.2306 21.599L49.9285 4.91256C50.2711 4.57023 50.8516 4.86618 50.7758 5.34451L47.0818 28.6512C47.0479 28.8652 47.1557 29.0767 47.3488 29.175L68.388 39.8877C68.8197 40.1075 68.7178 40.7514 68.2393 40.8271L44.9168 44.5185C44.7028 44.5523 44.535 44.7201 44.5011 44.9341L40.8071 68.2413C40.7313 68.7196 40.0878 68.8216 39.8678 68.3901L29.1471 47.364C29.0487 47.1711 28.8374 47.0635 28.6235 47.0973L5.30048 50.7888C4.82202 50.8645 4.52623 50.2837 4.86889 49.9412L21.5656 33.256C21.7189 33.1028 21.7561 32.8683 21.6576 32.6752L10.9376 11.6503Z" fill="#06E19F"/>
<path d="M5.68756 18.6917C5.3633 18.3318 5.68907 17.7673 6.16291 17.8679L29.2607 22.7741C29.4725 22.8191 29.6892 22.7227 29.7975 22.5352L41.6047 2.09855C41.847 1.67923 42.4843 1.81476 42.5349 2.29638L45.0032 25.7648C45.0259 25.9802 45.1847 26.1566 45.3966 26.2016L68.4937 31.1076C68.9676 31.2083 69.0357 31.8566 68.5931 32.0536L47.0217 41.6512C46.8237 41.7393 46.705 41.9448 46.7277 42.1603L49.196 65.6283C49.2466 66.11 48.6514 66.3751 48.3272 66.0153L32.5261 48.4784C32.3812 48.3176 32.1492 48.2683 31.9514 48.3563L10.3788 57.9544C9.93624 58.1513 9.50029 57.6669 9.7426 57.2475L21.549 36.8121C21.6575 36.6245 21.6326 36.3883 21.4876 36.2273L5.68756 18.6917Z" fill="#06E19F"/>
<path fill-rule="evenodd" clip-rule="evenodd" d="M32.6456 36.7201L40.9564 26.833L44.7196 29.8693L33.2156 43.5552L25.6641 37.0816L28.8743 33.4871L32.6456 36.7201Z" fill="white"/>
</svg>
