<svg width="18" height="34" viewBox="0 0 18 34" fill="none" xmlns="http://www.w3.org/2000/svg">
<path d="M15.1611 11.8242C14.9214 12.0586 14.5332 12.0586 14.2934 11.8242L8.9998 6.64829L3.70657 11.8242C3.46684 12.0586 3.07861 12.0586 2.83889 11.8242L0.179795 9.22425C-0.0599318 8.98985 -0.0599318 8.61026 0.179795 8.37586L8.56616 0.175997C8.68561 0.0583982 8.8427 0 8.9998 0C9.15689 0 9.31398 0.0583992 9.43384 0.175597L17.8202 8.37546C18.0599 8.60986 18.0599 8.98945 17.8202 9.22385L15.1611 11.8242Z" fill="#14AE64"/>
<path opacity="0.6" d="M15.1611 22.8242C14.9214 23.0586 14.5332 23.0586 14.2934 22.8242L8.9998 17.6483L3.70657 22.8242C3.46684 23.0586 3.07861 23.0586 2.83889 22.8242L0.179795 20.2242C-0.0599318 19.9899 -0.0599318 19.6103 0.179795 19.3759L8.56616 11.176C8.68561 11.0584 8.8427 11 8.9998 11C9.15689 11 9.31398 11.0584 9.43384 11.1756L17.8202 19.3755C18.0599 19.6099 18.0599 19.9895 17.8202 20.2238L15.1611 22.8242Z" fill="#14AE64"/>
<path opacity="0.3" d="M15.1611 33.8242C14.9214 34.0586 14.5332 34.0586 14.2934 33.8242L8.9998 28.6483L3.70657 33.8242C3.46684 34.0586 3.07861 34.0586 2.83889 33.8242L0.179795 31.2242C-0.0599318 30.9899 -0.0599318 30.6103 0.179795 30.3759L8.56616 22.176C8.68561 22.0584 8.8427 22 8.9998 22C9.15689 22 9.31398 22.0584 9.43384 22.1756L17.8202 30.3755C18.0599 30.6099 18.0599 30.9895 17.8202 31.2238L15.1611 33.8242Z" fill="#14AE64"/>
</svg>
